<?xml version="1.0" encoding="utf-8" standalone="no"?>
<!DOCTYPE svg PUBLIC "-//W3C//DTD SVG 1.1//EN"
  "http://www.w3.org/Graphics/SVG/1.1/DTD/svg11.dtd">
<svg xmlns:xlink="http://www.w3.org/1999/xlink" width="1080pt" height="288pt" viewBox="0 0 1080 288" xmlns="http://www.w3.org/2000/svg" version="1.1">
 <metadata>
  <rdf:RDF xmlns:dc="http://purl.org/dc/elements/1.1/" xmlns:cc="http://creativecommons.org/ns#" xmlns:rdf="http://www.w3.org/1999/02/22-rdf-syntax-ns#">
   <cc:Work>
    <dc:type rdf:resource="http://purl.org/dc/dcmitype/StillImage"/>
    <dc:date>2026-02-25T10:40:54.054777</dc:date>
    <dc:format>image/svg+xml</dc:format>
    <dc:creator>
     <cc:Agent>
      <dc:title>Matplotlib v3.10.1, https://matplotlib.org/</dc:title>
     </cc:Agent>
    </dc:creator>
   </cc:Work>
  </rdf:RDF>
 </metadata>
 <defs>
  <style type="text/css">*{stroke-linejoin: round; stroke-linecap: butt}</style>
 </defs>
 <g id="figure_1">
  <g id="patch_1">
   <path d="M 0 288 
L 1080 288 
L 1080 0 
L 0 0 
z
" style="fill: #ffffff"/>
  </g>
  <g id="axes_1">
   <g id="patch_2">
    <path d="M 34.97 255.46 
L 1067.04 255.46 
L 1067.04 40.649708 
L 34.97 40.649708 
z
" style="fill: #ffffff"/>
   </g>
   <g id="matplotlib.axis_1">
    <g id="xtick_1">
     <g id="line2d_1">
      <defs>
       <path id="mdfffb64deb" d="M 0 0 
L 0 6 
" style="stroke: #262626; stroke-width: 1.25"/>
      </defs>
      <g>
       <use xlink:href="#mdfffb64deb" x="99.474375" y="255.46" style="fill: #262626; stroke: #262626; stroke-width: 1.25"/>
      </g>
     </g>
     <g id="text_1">
      <!-- OverallRating -->
      <g style="fill: #262626" transform="translate(66.156406 272.974531) scale(0.11 -0.11)">
       <defs>
        <path id="ArialMT-4f" d="M 309 2231 
Q 309 3372 921 4017 
Q 1534 4663 2503 4663 
Q 3138 4663 3647 4359 
Q 4156 4056 4423 3514 
Q 4691 2972 4691 2284 
Q 4691 1588 4409 1038 
Q 4128 488 3612 205 
Q 3097 -78 2500 -78 
Q 1853 -78 1343 234 
Q 834 547 571 1087 
Q 309 1628 309 2231 
z
M 934 2222 
Q 934 1394 1379 917 
Q 1825 441 2497 441 
Q 3181 441 3623 922 
Q 4066 1403 4066 2288 
Q 4066 2847 3877 3264 
Q 3688 3681 3323 3911 
Q 2959 4141 2506 4141 
Q 1863 4141 1398 3698 
Q 934 3256 934 2222 
z
" transform="scale(0.015625)"/>
        <path id="ArialMT-76" d="M 1344 0 
L 81 3319 
L 675 3319 
L 1388 1331 
Q 1503 1009 1600 663 
Q 1675 925 1809 1294 
L 2547 3319 
L 3125 3319 
L 1869 0 
L 1344 0 
z
" transform="scale(0.015625)"/>
        <path id="ArialMT-65" d="M 2694 1069 
L 3275 997 
Q 3138 488 2766 206 
Q 2394 -75 1816 -75 
Q 1088 -75 661 373 
Q 234 822 234 1631 
Q 234 2469 665 2931 
Q 1097 3394 1784 3394 
Q 2450 3394 2872 2941 
Q 3294 2488 3294 1666 
Q 3294 1616 3291 1516 
L 816 1516 
Q 847 969 1125 678 
Q 1403 388 1819 388 
Q 2128 388 2347 550 
Q 2566 713 2694 1069 
z
M 847 1978 
L 2700 1978 
Q 2663 2397 2488 2606 
Q 2219 2931 1791 2931 
Q 1403 2931 1139 2672 
Q 875 2413 847 1978 
z
" transform="scale(0.015625)"/>
        <path id="ArialMT-72" d="M 416 0 
L 416 3319 
L 922 3319 
L 922 2816 
Q 1116 3169 1280 3281 
Q 1444 3394 1641 3394 
Q 1925 3394 2219 3213 
L 2025 2691 
Q 1819 2813 1613 2813 
Q 1428 2813 1281 2702 
Q 1134 2591 1072 2394 
Q 978 2094 978 1738 
L 978 0 
L 416 0 
z
" transform="scale(0.015625)"/>
        <path id="ArialMT-61" d="M 2588 409 
Q 2275 144 1986 34 
Q 1697 -75 1366 -75 
Q 819 -75 525 192 
Q 231 459 231 875 
Q 231 1119 342 1320 
Q 453 1522 633 1644 
Q 813 1766 1038 1828 
Q 1203 1872 1538 1913 
Q 2219 1994 2541 2106 
Q 2544 2222 2544 2253 
Q 2544 2597 2384 2738 
Q 2169 2928 1744 2928 
Q 1347 2928 1158 2789 
Q 969 2650 878 2297 
L 328 2372 
Q 403 2725 575 2942 
Q 747 3159 1072 3276 
Q 1397 3394 1825 3394 
Q 2250 3394 2515 3294 
Q 2781 3194 2906 3042 
Q 3031 2891 3081 2659 
Q 3109 2516 3109 2141 
L 3109 1391 
Q 3109 606 3145 398 
Q 3181 191 3288 0 
L 2700 0 
Q 2613 175 2588 409 
z
M 2541 1666 
Q 2234 1541 1622 1453 
Q 1275 1403 1131 1340 
Q 988 1278 909 1158 
Q 831 1038 831 891 
Q 831 666 1001 516 
Q 1172 366 1500 366 
Q 1825 366 2078 508 
Q 2331 650 2450 897 
Q 2541 1088 2541 1459 
L 2541 1666 
z
" transform="scale(0.015625)"/>
        <path id="ArialMT-6c" d="M 409 0 
L 409 4581 
L 972 4581 
L 972 0 
L 409 0 
z
" transform="scale(0.015625)"/>
        <path id="ArialMT-52" d="M 503 0 
L 503 4581 
L 2534 4581 
Q 3147 4581 3465 4457 
Q 3784 4334 3975 4021 
Q 4166 3709 4166 3331 
Q 4166 2844 3850 2509 
Q 3534 2175 2875 2084 
Q 3116 1969 3241 1856 
Q 3506 1613 3744 1247 
L 4541 0 
L 3778 0 
L 3172 953 
Q 2906 1366 2734 1584 
Q 2563 1803 2427 1890 
Q 2291 1978 2150 2013 
Q 2047 2034 1813 2034 
L 1109 2034 
L 1109 0 
L 503 0 
z
M 1109 2559 
L 2413 2559 
Q 2828 2559 3062 2645 
Q 3297 2731 3419 2920 
Q 3541 3109 3541 3331 
Q 3541 3656 3305 3865 
Q 3069 4075 2559 4075 
L 1109 4075 
L 1109 2559 
z
" transform="scale(0.015625)"/>
        <path id="ArialMT-74" d="M 1650 503 
L 1731 6 
Q 1494 -44 1306 -44 
Q 1000 -44 831 53 
Q 663 150 594 308 
Q 525 466 525 972 
L 525 2881 
L 113 2881 
L 113 3319 
L 525 3319 
L 525 4141 
L 1084 4478 
L 1084 3319 
L 1650 3319 
L 1650 2881 
L 1084 2881 
L 1084 941 
Q 1084 700 1114 631 
Q 1144 563 1211 522 
Q 1278 481 1403 481 
Q 1497 481 1650 503 
z
" transform="scale(0.015625)"/>
        <path id="ArialMT-69" d="M 425 3934 
L 425 4581 
L 988 4581 
L 988 3934 
L 425 3934 
z
M 425 0 
L 425 3319 
L 988 3319 
L 988 0 
L 425 0 
z
" transform="scale(0.015625)"/>
        <path id="ArialMT-6e" d="M 422 0 
L 422 3319 
L 928 3319 
L 928 2847 
Q 1294 3394 1984 3394 
Q 2284 3394 2536 3286 
Q 2788 3178 2913 3003 
Q 3038 2828 3088 2588 
Q 3119 2431 3119 2041 
L 3119 0 
L 2556 0 
L 2556 2019 
Q 2556 2363 2490 2533 
Q 2425 2703 2258 2804 
Q 2091 2906 1866 2906 
Q 1506 2906 1245 2678 
Q 984 2450 984 1813 
L 984 0 
L 422 0 
z
" transform="scale(0.015625)"/>
        <path id="ArialMT-67" d="M 319 -275 
L 866 -356 
Q 900 -609 1056 -725 
Q 1266 -881 1628 -881 
Q 2019 -881 2231 -725 
Q 2444 -569 2519 -288 
Q 2563 -116 2559 434 
Q 2191 0 1641 0 
Q 956 0 581 494 
Q 206 988 206 1678 
Q 206 2153 378 2554 
Q 550 2956 876 3175 
Q 1203 3394 1644 3394 
Q 2231 3394 2613 2919 
L 2613 3319 
L 3131 3319 
L 3131 450 
Q 3131 -325 2973 -648 
Q 2816 -972 2473 -1159 
Q 2131 -1347 1631 -1347 
Q 1038 -1347 672 -1080 
Q 306 -813 319 -275 
z
M 784 1719 
Q 784 1066 1043 766 
Q 1303 466 1694 466 
Q 2081 466 2343 764 
Q 2606 1063 2606 1700 
Q 2606 2309 2336 2618 
Q 2066 2928 1684 2928 
Q 1309 2928 1046 2623 
Q 784 2319 784 1719 
z
" transform="scale(0.015625)"/>
       </defs>
       <use xlink:href="#ArialMT-4f"/>
       <use xlink:href="#ArialMT-76" transform="translate(77.783203 0)"/>
       <use xlink:href="#ArialMT-65" transform="translate(127.783203 0)"/>
       <use xlink:href="#ArialMT-72" transform="translate(183.398438 0)"/>
       <use xlink:href="#ArialMT-61" transform="translate(216.699219 0)"/>
       <use xlink:href="#ArialMT-6c" transform="translate(272.314453 0)"/>
       <use xlink:href="#ArialMT-6c" transform="translate(294.53125 0)"/>
       <use xlink:href="#ArialMT-52" transform="translate(316.748047 0)"/>
       <use xlink:href="#ArialMT-61" transform="translate(388.964844 0)"/>
       <use xlink:href="#ArialMT-74" transform="translate(444.580078 0)"/>
       <use xlink:href="#ArialMT-69" transform="translate(472.363281 0)"/>
       <use xlink:href="#ArialMT-6e" transform="translate(494.580078 0)"/>
       <use xlink:href="#ArialMT-67" transform="translate(550.195312 0)"/>
      </g>
     </g>
    </g>
    <g id="xtick_2">
     <g id="line2d_2">
      <g>
       <use xlink:href="#mdfffb64deb" x="228.483125" y="255.46" style="fill: #262626; stroke: #262626; stroke-width: 1.25"/>
      </g>
     </g>
     <g id="text_2">
      <!-- SeatComfort -->
      <g style="fill: #262626" transform="translate(197.611797 272.833594) scale(0.11 -0.11)">
       <defs>
        <path id="ArialMT-53" d="M 288 1472 
L 859 1522 
Q 900 1178 1048 958 
Q 1197 738 1509 602 
Q 1822 466 2213 466 
Q 2559 466 2825 569 
Q 3091 672 3220 851 
Q 3350 1031 3350 1244 
Q 3350 1459 3225 1620 
Q 3100 1781 2813 1891 
Q 2628 1963 1997 2114 
Q 1366 2266 1113 2400 
Q 784 2572 623 2826 
Q 463 3081 463 3397 
Q 463 3744 659 4045 
Q 856 4347 1234 4503 
Q 1613 4659 2075 4659 
Q 2584 4659 2973 4495 
Q 3363 4331 3572 4012 
Q 3781 3694 3797 3291 
L 3216 3247 
Q 3169 3681 2898 3903 
Q 2628 4125 2100 4125 
Q 1550 4125 1298 3923 
Q 1047 3722 1047 3438 
Q 1047 3191 1225 3031 
Q 1400 2872 2139 2705 
Q 2878 2538 3153 2413 
Q 3553 2228 3743 1945 
Q 3934 1663 3934 1294 
Q 3934 928 3725 604 
Q 3516 281 3123 101 
Q 2731 -78 2241 -78 
Q 1619 -78 1198 103 
Q 778 284 539 648 
Q 300 1013 288 1472 
z
" transform="scale(0.015625)"/>
        <path id="ArialMT-43" d="M 3763 1606 
L 4369 1453 
Q 4178 706 3683 314 
Q 3188 -78 2472 -78 
Q 1731 -78 1267 223 
Q 803 525 561 1097 
Q 319 1669 319 2325 
Q 319 3041 592 3573 
Q 866 4106 1370 4382 
Q 1875 4659 2481 4659 
Q 3169 4659 3637 4309 
Q 4106 3959 4291 3325 
L 3694 3184 
Q 3534 3684 3231 3912 
Q 2928 4141 2469 4141 
Q 1941 4141 1586 3887 
Q 1231 3634 1087 3207 
Q 944 2781 944 2328 
Q 944 1744 1114 1308 
Q 1284 872 1643 656 
Q 2003 441 2422 441 
Q 2931 441 3284 734 
Q 3638 1028 3763 1606 
z
" transform="scale(0.015625)"/>
        <path id="ArialMT-6f" d="M 213 1659 
Q 213 2581 725 3025 
Q 1153 3394 1769 3394 
Q 2453 3394 2887 2945 
Q 3322 2497 3322 1706 
Q 3322 1066 3130 698 
Q 2938 331 2570 128 
Q 2203 -75 1769 -75 
Q 1072 -75 642 372 
Q 213 819 213 1659 
z
M 791 1659 
Q 791 1022 1069 705 
Q 1347 388 1769 388 
Q 2188 388 2466 706 
Q 2744 1025 2744 1678 
Q 2744 2294 2464 2611 
Q 2184 2928 1769 2928 
Q 1347 2928 1069 2612 
Q 791 2297 791 1659 
z
" transform="scale(0.015625)"/>
        <path id="ArialMT-6d" d="M 422 0 
L 422 3319 
L 925 3319 
L 925 2853 
Q 1081 3097 1340 3245 
Q 1600 3394 1931 3394 
Q 2300 3394 2536 3241 
Q 2772 3088 2869 2813 
Q 3263 3394 3894 3394 
Q 4388 3394 4653 3120 
Q 4919 2847 4919 2278 
L 4919 0 
L 4359 0 
L 4359 2091 
Q 4359 2428 4304 2576 
Q 4250 2725 4106 2815 
Q 3963 2906 3769 2906 
Q 3419 2906 3187 2673 
Q 2956 2441 2956 1928 
L 2956 0 
L 2394 0 
L 2394 2156 
Q 2394 2531 2256 2718 
Q 2119 2906 1806 2906 
Q 1569 2906 1367 2781 
Q 1166 2656 1075 2415 
Q 984 2175 984 1722 
L 984 0 
L 422 0 
z
" transform="scale(0.015625)"/>
        <path id="ArialMT-66" d="M 556 0 
L 556 2881 
L 59 2881 
L 59 3319 
L 556 3319 
L 556 3672 
Q 556 4006 616 4169 
Q 697 4388 901 4523 
Q 1106 4659 1475 4659 
Q 1713 4659 2000 4603 
L 1916 4113 
Q 1741 4144 1584 4144 
Q 1328 4144 1222 4034 
Q 1116 3925 1116 3625 
L 1116 3319 
L 1763 3319 
L 1763 2881 
L 1116 2881 
L 1116 0 
L 556 0 
z
" transform="scale(0.015625)"/>
       </defs>
       <use xlink:href="#ArialMT-53"/>
       <use xlink:href="#ArialMT-65" transform="translate(66.699219 0)"/>
       <use xlink:href="#ArialMT-61" transform="translate(122.314453 0)"/>
       <use xlink:href="#ArialMT-74" transform="translate(177.929688 0)"/>
       <use xlink:href="#ArialMT-43" transform="translate(205.712891 0)"/>
       <use xlink:href="#ArialMT-6f" transform="translate(277.929688 0)"/>
       <use xlink:href="#ArialMT-6d" transform="translate(333.544922 0)"/>
       <use xlink:href="#ArialMT-66" transform="translate(416.845703 0)"/>
       <use xlink:href="#ArialMT-6f" transform="translate(444.628906 0)"/>
       <use xlink:href="#ArialMT-72" transform="translate(500.244141 0)"/>
       <use xlink:href="#ArialMT-74" transform="translate(533.544922 0)"/>
      </g>
     </g>
    </g>
    <g id="xtick_3">
     <g id="line2d_3">
      <g>
       <use xlink:href="#mdfffb64deb" x="357.491875" y="255.46" style="fill: #262626; stroke: #262626; stroke-width: 1.25"/>
      </g>
     </g>
     <g id="text_3">
      <!-- CabinStaffService -->
      <g style="fill: #262626" transform="translate(313.568359 272.833594) scale(0.11 -0.11)">
       <defs>
        <path id="ArialMT-62" d="M 941 0 
L 419 0 
L 419 4581 
L 981 4581 
L 981 2947 
Q 1338 3394 1891 3394 
Q 2197 3394 2470 3270 
Q 2744 3147 2920 2923 
Q 3097 2700 3197 2384 
Q 3297 2069 3297 1709 
Q 3297 856 2875 390 
Q 2453 -75 1863 -75 
Q 1275 -75 941 416 
L 941 0 
z
M 934 1684 
Q 934 1088 1097 822 
Q 1363 388 1816 388 
Q 2184 388 2453 708 
Q 2722 1028 2722 1663 
Q 2722 2313 2464 2622 
Q 2206 2931 1841 2931 
Q 1472 2931 1203 2611 
Q 934 2291 934 1684 
z
" transform="scale(0.015625)"/>
        <path id="ArialMT-63" d="M 2588 1216 
L 3141 1144 
Q 3050 572 2676 248 
Q 2303 -75 1759 -75 
Q 1078 -75 664 370 
Q 250 816 250 1647 
Q 250 2184 428 2587 
Q 606 2991 970 3192 
Q 1334 3394 1763 3394 
Q 2303 3394 2647 3120 
Q 2991 2847 3088 2344 
L 2541 2259 
Q 2463 2594 2264 2762 
Q 2066 2931 1784 2931 
Q 1359 2931 1093 2626 
Q 828 2322 828 1663 
Q 828 994 1084 691 
Q 1341 388 1753 388 
Q 2084 388 2306 591 
Q 2528 794 2588 1216 
z
" transform="scale(0.015625)"/>
       </defs>
       <use xlink:href="#ArialMT-43"/>
       <use xlink:href="#ArialMT-61" transform="translate(72.216797 0)"/>
       <use xlink:href="#ArialMT-62" transform="translate(127.832031 0)"/>
       <use xlink:href="#ArialMT-69" transform="translate(183.447266 0)"/>
       <use xlink:href="#ArialMT-6e" transform="translate(205.664062 0)"/>
       <use xlink:href="#ArialMT-53" transform="translate(261.279297 0)"/>
       <use xlink:href="#ArialMT-74" transform="translate(327.978516 0)"/>
       <use xlink:href="#ArialMT-61" transform="translate(355.761719 0)"/>
       <use xlink:href="#ArialMT-66" transform="translate(411.376953 0)"/>
       <use xlink:href="#ArialMT-66" transform="translate(437.410156 0)"/>
       <use xlink:href="#ArialMT-53" transform="translate(465.193359 0)"/>
       <use xlink:href="#ArialMT-65" transform="translate(531.892578 0)"/>
       <use xlink:href="#ArialMT-72" transform="translate(587.507812 0)"/>
       <use xlink:href="#ArialMT-76" transform="translate(620.808594 0)"/>
       <use xlink:href="#ArialMT-69" transform="translate(670.808594 0)"/>
       <use xlink:href="#ArialMT-63" transform="translate(693.025391 0)"/>
       <use xlink:href="#ArialMT-65" transform="translate(743.025391 0)"/>
      </g>
     </g>
    </g>
    <g id="xtick_4">
     <g id="line2d_4">
      <g>
       <use xlink:href="#mdfffb64deb" x="486.500625" y="255.46" style="fill: #262626; stroke: #262626; stroke-width: 1.25"/>
      </g>
     </g>
     <g id="text_4">
      <!-- GroundService -->
      <g style="fill: #262626" transform="translate(449.818203 272.833594) scale(0.11 -0.11)">
       <defs>
        <path id="ArialMT-47" d="M 2638 1797 
L 2638 2334 
L 4578 2338 
L 4578 638 
Q 4131 281 3656 101 
Q 3181 -78 2681 -78 
Q 2006 -78 1454 211 
Q 903 500 622 1047 
Q 341 1594 341 2269 
Q 341 2938 620 3517 
Q 900 4097 1425 4378 
Q 1950 4659 2634 4659 
Q 3131 4659 3532 4498 
Q 3934 4338 4162 4050 
Q 4391 3763 4509 3300 
L 3963 3150 
Q 3859 3500 3706 3700 
Q 3553 3900 3268 4020 
Q 2984 4141 2638 4141 
Q 2222 4141 1919 4014 
Q 1616 3888 1430 3681 
Q 1244 3475 1141 3228 
Q 966 2803 966 2306 
Q 966 1694 1177 1281 
Q 1388 869 1791 669 
Q 2194 469 2647 469 
Q 3041 469 3416 620 
Q 3791 772 3984 944 
L 3984 1797 
L 2638 1797 
z
" transform="scale(0.015625)"/>
        <path id="ArialMT-75" d="M 2597 0 
L 2597 488 
Q 2209 -75 1544 -75 
Q 1250 -75 995 37 
Q 741 150 617 320 
Q 494 491 444 738 
Q 409 903 409 1263 
L 409 3319 
L 972 3319 
L 972 1478 
Q 972 1038 1006 884 
Q 1059 663 1231 536 
Q 1403 409 1656 409 
Q 1909 409 2131 539 
Q 2353 669 2445 892 
Q 2538 1116 2538 1541 
L 2538 3319 
L 3100 3319 
L 3100 0 
L 2597 0 
z
" transform="scale(0.015625)"/>
        <path id="ArialMT-64" d="M 2575 0 
L 2575 419 
Q 2259 -75 1647 -75 
Q 1250 -75 917 144 
Q 584 363 401 755 
Q 219 1147 219 1656 
Q 219 2153 384 2558 
Q 550 2963 881 3178 
Q 1213 3394 1622 3394 
Q 1922 3394 2156 3267 
Q 2391 3141 2538 2938 
L 2538 4581 
L 3097 4581 
L 3097 0 
L 2575 0 
z
M 797 1656 
Q 797 1019 1065 703 
Q 1334 388 1700 388 
Q 2069 388 2326 689 
Q 2584 991 2584 1609 
Q 2584 2291 2321 2609 
Q 2059 2928 1675 2928 
Q 1300 2928 1048 2622 
Q 797 2316 797 1656 
z
" transform="scale(0.015625)"/>
       </defs>
       <use xlink:href="#ArialMT-47"/>
       <use xlink:href="#ArialMT-72" transform="translate(77.783203 0)"/>
       <use xlink:href="#ArialMT-6f" transform="translate(111.083984 0)"/>
       <use xlink:href="#ArialMT-75" transform="translate(166.699219 0)"/>
       <use xlink:href="#ArialMT-6e" transform="translate(222.314453 0)"/>
       <use xlink:href="#ArialMT-64" transform="translate(277.929688 0)"/>
       <use xlink:href="#ArialMT-53" transform="translate(333.544922 0)"/>
       <use xlink:href="#ArialMT-65" transform="translate(400.244141 0)"/>
       <use xlink:href="#ArialMT-72" transform="translate(455.859375 0)"/>
       <use xlink:href="#ArialMT-76" transform="translate(489.160156 0)"/>
       <use xlink:href="#ArialMT-69" transform="translate(539.160156 0)"/>
       <use xlink:href="#ArialMT-63" transform="translate(561.376953 0)"/>
       <use xlink:href="#ArialMT-65" transform="translate(611.376953 0)"/>
      </g>
     </g>
    </g>
    <g id="xtick_5">
     <g id="line2d_5">
      <g>
       <use xlink:href="#mdfffb64deb" x="615.509375" y="255.46" style="fill: #262626; stroke: #262626; stroke-width: 1.25"/>
      </g>
     </g>
     <g id="text_5">
      <!-- ValueForMoney -->
      <g style="fill: #262626" transform="translate(577.092734 272.833594) scale(0.11 -0.11)">
       <defs>
        <path id="ArialMT-56" d="M 1803 0 
L 28 4581 
L 684 4581 
L 1875 1253 
Q 2019 853 2116 503 
Q 2222 878 2363 1253 
L 3600 4581 
L 4219 4581 
L 2425 0 
L 1803 0 
z
" transform="scale(0.015625)"/>
        <path id="ArialMT-46" d="M 525 0 
L 525 4581 
L 3616 4581 
L 3616 4041 
L 1131 4041 
L 1131 2622 
L 3281 2622 
L 3281 2081 
L 1131 2081 
L 1131 0 
L 525 0 
z
" transform="scale(0.015625)"/>
        <path id="ArialMT-4d" d="M 475 0 
L 475 4581 
L 1388 4581 
L 2472 1338 
Q 2622 884 2691 659 
Q 2769 909 2934 1394 
L 4031 4581 
L 4847 4581 
L 4847 0 
L 4263 0 
L 4263 3834 
L 2931 0 
L 2384 0 
L 1059 3900 
L 1059 0 
L 475 0 
z
" transform="scale(0.015625)"/>
        <path id="ArialMT-79" d="M 397 -1278 
L 334 -750 
Q 519 -800 656 -800 
Q 844 -800 956 -737 
Q 1069 -675 1141 -563 
Q 1194 -478 1313 -144 
Q 1328 -97 1363 -6 
L 103 3319 
L 709 3319 
L 1400 1397 
Q 1534 1031 1641 628 
Q 1738 1016 1872 1384 
L 2581 3319 
L 3144 3319 
L 1881 -56 
Q 1678 -603 1566 -809 
Q 1416 -1088 1222 -1217 
Q 1028 -1347 759 -1347 
Q 597 -1347 397 -1278 
z
" transform="scale(0.015625)"/>
       </defs>
       <use xlink:href="#ArialMT-56"/>
       <use xlink:href="#ArialMT-61" transform="translate(59.324219 0)"/>
       <use xlink:href="#ArialMT-6c" transform="translate(114.939453 0)"/>
       <use xlink:href="#ArialMT-75" transform="translate(137.15625 0)"/>
       <use xlink:href="#ArialMT-65" transform="translate(192.771484 0)"/>
       <use xlink:href="#ArialMT-46" transform="translate(248.386719 0)"/>
       <use xlink:href="#ArialMT-6f" transform="translate(309.470703 0)"/>
       <use xlink:href="#ArialMT-72" transform="translate(365.085938 0)"/>
       <use xlink:href="#ArialMT-4d" transform="translate(398.386719 0)"/>
       <use xlink:href="#ArialMT-6f" transform="translate(481.6875 0)"/>
       <use xlink:href="#ArialMT-6e" transform="translate(537.302734 0)"/>
       <use xlink:href="#ArialMT-65" transform="translate(592.917969 0)"/>
       <use xlink:href="#ArialMT-79" transform="translate(648.533203 0)"/>
      </g>
     </g>
    </g>
    <g id="xtick_6">
     <g id="line2d_6">
      <g>
       <use xlink:href="#mdfffb64deb" x="744.518125" y="255.46" style="fill: #262626; stroke: #262626; stroke-width: 1.25"/>
      </g>
     </g>
     <g id="text_6">
      <!-- Food&amp;Beverages -->
      <g style="fill: #262626" transform="translate(702.022031 272.967656) scale(0.11 -0.11)">
       <defs>
        <path id="ArialMT-26" d="M 3041 541 
Q 2763 231 2434 76 
Q 2106 -78 1725 -78 
Q 1022 -78 609 397 
Q 275 784 275 1263 
Q 275 1688 548 2030 
Q 822 2372 1366 2631 
Q 1056 2988 953 3209 
Q 850 3431 850 3638 
Q 850 4050 1173 4354 
Q 1497 4659 1988 4659 
Q 2456 4659 2754 4371 
Q 3053 4084 3053 3681 
Q 3053 3028 2188 2566 
L 3009 1519 
Q 3150 1794 3228 2156 
L 3813 2031 
Q 3663 1431 3406 1044 
Q 3722 625 4122 341 
L 3744 -106 
Q 3403 113 3041 541 
z
M 1897 2928 
Q 2263 3144 2370 3306 
Q 2478 3469 2478 3666 
Q 2478 3900 2329 4048 
Q 2181 4197 1959 4197 
Q 1731 4197 1579 4050 
Q 1428 3903 1428 3691 
Q 1428 3584 1483 3467 
Q 1538 3350 1647 3219 
L 1897 2928 
z
M 2688 984 
L 1656 2263 
Q 1200 1991 1040 1758 
Q 881 1525 881 1297 
Q 881 1019 1103 719 
Q 1325 419 1731 419 
Q 1984 419 2254 576 
Q 2525 734 2688 984 
z
" transform="scale(0.015625)"/>
        <path id="ArialMT-42" d="M 469 0 
L 469 4581 
L 2188 4581 
Q 2713 4581 3030 4442 
Q 3347 4303 3526 4014 
Q 3706 3725 3706 3409 
Q 3706 3116 3547 2856 
Q 3388 2597 3066 2438 
Q 3481 2316 3704 2022 
Q 3928 1728 3928 1328 
Q 3928 1006 3792 729 
Q 3656 453 3456 303 
Q 3256 153 2954 76 
Q 2653 0 2216 0 
L 469 0 
z
M 1075 2656 
L 2066 2656 
Q 2469 2656 2644 2709 
Q 2875 2778 2992 2937 
Q 3109 3097 3109 3338 
Q 3109 3566 3000 3739 
Q 2891 3913 2687 3977 
Q 2484 4041 1991 4041 
L 1075 4041 
L 1075 2656 
z
M 1075 541 
L 2216 541 
Q 2509 541 2628 563 
Q 2838 600 2978 687 
Q 3119 775 3209 942 
Q 3300 1109 3300 1328 
Q 3300 1584 3169 1773 
Q 3038 1963 2805 2039 
Q 2572 2116 2134 2116 
L 1075 2116 
L 1075 541 
z
" transform="scale(0.015625)"/>
        <path id="ArialMT-73" d="M 197 991 
L 753 1078 
Q 800 744 1014 566 
Q 1228 388 1613 388 
Q 2000 388 2187 545 
Q 2375 703 2375 916 
Q 2375 1106 2209 1216 
Q 2094 1291 1634 1406 
Q 1016 1563 777 1677 
Q 538 1791 414 1992 
Q 291 2194 291 2438 
Q 291 2659 392 2848 
Q 494 3038 669 3163 
Q 800 3259 1026 3326 
Q 1253 3394 1513 3394 
Q 1903 3394 2198 3281 
Q 2494 3169 2634 2976 
Q 2775 2784 2828 2463 
L 2278 2388 
Q 2241 2644 2061 2787 
Q 1881 2931 1553 2931 
Q 1166 2931 1000 2803 
Q 834 2675 834 2503 
Q 834 2394 903 2306 
Q 972 2216 1119 2156 
Q 1203 2125 1616 2013 
Q 2213 1853 2448 1751 
Q 2684 1650 2818 1456 
Q 2953 1263 2953 975 
Q 2953 694 2789 445 
Q 2625 197 2315 61 
Q 2006 -75 1616 -75 
Q 969 -75 630 194 
Q 291 463 197 991 
z
" transform="scale(0.015625)"/>
       </defs>
       <use xlink:href="#ArialMT-46"/>
       <use xlink:href="#ArialMT-6f" transform="translate(61.083984 0)"/>
       <use xlink:href="#ArialMT-6f" transform="translate(116.699219 0)"/>
       <use xlink:href="#ArialMT-64" transform="translate(172.314453 0)"/>
       <use xlink:href="#ArialMT-26" transform="translate(227.929688 0)"/>
       <use xlink:href="#ArialMT-42" transform="translate(294.628906 0)"/>
       <use xlink:href="#ArialMT-65" transform="translate(361.328125 0)"/>
       <use xlink:href="#ArialMT-76" transform="translate(416.943359 0)"/>
       <use xlink:href="#ArialMT-65" transform="translate(466.943359 0)"/>
       <use xlink:href="#ArialMT-72" transform="translate(522.558594 0)"/>
       <use xlink:href="#ArialMT-61" transform="translate(555.859375 0)"/>
       <use xlink:href="#ArialMT-67" transform="translate(611.474609 0)"/>
       <use xlink:href="#ArialMT-65" transform="translate(667.089844 0)"/>
       <use xlink:href="#ArialMT-73" transform="translate(722.705078 0)"/>
      </g>
     </g>
    </g>
    <g id="xtick_7">
     <g id="line2d_7">
      <g>
       <use xlink:href="#mdfffb64deb" x="873.526875" y="255.46" style="fill: #262626; stroke: #262626; stroke-width: 1.25"/>
      </g>
     </g>
     <g id="text_7">
      <!-- InflightEntertainment -->
      <g style="fill: #262626" transform="translate(823.085 272.967656) scale(0.11 -0.11)">
       <defs>
        <path id="ArialMT-49" d="M 597 0 
L 597 4581 
L 1203 4581 
L 1203 0 
L 597 0 
z
" transform="scale(0.015625)"/>
        <path id="ArialMT-68" d="M 422 0 
L 422 4581 
L 984 4581 
L 984 2938 
Q 1378 3394 1978 3394 
Q 2347 3394 2619 3248 
Q 2891 3103 3008 2847 
Q 3125 2591 3125 2103 
L 3125 0 
L 2563 0 
L 2563 2103 
Q 2563 2525 2380 2717 
Q 2197 2909 1863 2909 
Q 1613 2909 1392 2779 
Q 1172 2650 1078 2428 
Q 984 2206 984 1816 
L 984 0 
L 422 0 
z
" transform="scale(0.015625)"/>
        <path id="ArialMT-45" d="M 506 0 
L 506 4581 
L 3819 4581 
L 3819 4041 
L 1113 4041 
L 1113 2638 
L 3647 2638 
L 3647 2100 
L 1113 2100 
L 1113 541 
L 3925 541 
L 3925 0 
L 506 0 
z
" transform="scale(0.015625)"/>
       </defs>
       <use xlink:href="#ArialMT-49"/>
       <use xlink:href="#ArialMT-6e" transform="translate(27.783203 0)"/>
       <use xlink:href="#ArialMT-66" transform="translate(83.398438 0)"/>
       <use xlink:href="#ArialMT-6c" transform="translate(111.181641 0)"/>
       <use xlink:href="#ArialMT-69" transform="translate(133.398438 0)"/>
       <use xlink:href="#ArialMT-67" transform="translate(155.615234 0)"/>
       <use xlink:href="#ArialMT-68" transform="translate(211.230469 0)"/>
       <use xlink:href="#ArialMT-74" transform="translate(266.845703 0)"/>
       <use xlink:href="#ArialMT-45" transform="translate(294.628906 0)"/>
       <use xlink:href="#ArialMT-6e" transform="translate(361.328125 0)"/>
       <use xlink:href="#ArialMT-74" transform="translate(416.943359 0)"/>
       <use xlink:href="#ArialMT-65" transform="translate(444.726562 0)"/>
       <use xlink:href="#ArialMT-72" transform="translate(500.341797 0)"/>
       <use xlink:href="#ArialMT-74" transform="translate(533.642578 0)"/>
       <use xlink:href="#ArialMT-61" transform="translate(561.425781 0)"/>
       <use xlink:href="#ArialMT-69" transform="translate(617.041016 0)"/>
       <use xlink:href="#ArialMT-6e" transform="translate(639.257812 0)"/>
       <use xlink:href="#ArialMT-6d" transform="translate(694.873047 0)"/>
       <use xlink:href="#ArialMT-65" transform="translate(778.173828 0)"/>
       <use xlink:href="#ArialMT-6e" transform="translate(833.789062 0)"/>
       <use xlink:href="#ArialMT-74" transform="translate(889.404297 0)"/>
      </g>
     </g>
    </g>
    <g id="xtick_8">
     <g id="line2d_8">
      <g>
       <use xlink:href="#mdfffb64deb" x="1002.535625" y="255.46" style="fill: #262626; stroke: #262626; stroke-width: 1.25"/>
      </g>
     </g>
     <g id="text_8">
      <!-- Wifi&amp;Connectivity -->
      <g style="fill: #262626" transform="translate(959.747344 272.967656) scale(0.11 -0.11)">
       <defs>
        <path id="ArialMT-57" d="M 1294 0 
L 78 4581 
L 700 4581 
L 1397 1578 
Q 1509 1106 1591 641 
Q 1766 1375 1797 1488 
L 2669 4581 
L 3400 4581 
L 4056 2263 
Q 4303 1400 4413 641 
Q 4500 1075 4641 1638 
L 5359 4581 
L 5969 4581 
L 4713 0 
L 4128 0 
L 3163 3491 
Q 3041 3928 3019 4028 
Q 2947 3713 2884 3491 
L 1913 0 
L 1294 0 
z
" transform="scale(0.015625)"/>
       </defs>
       <use xlink:href="#ArialMT-57"/>
       <use xlink:href="#ArialMT-69" transform="translate(94.384766 0)"/>
       <use xlink:href="#ArialMT-66" transform="translate(116.601562 0)"/>
       <use xlink:href="#ArialMT-69" transform="translate(144.384766 0)"/>
       <use xlink:href="#ArialMT-26" transform="translate(166.601562 0)"/>
       <use xlink:href="#ArialMT-43" transform="translate(233.300781 0)"/>
       <use xlink:href="#ArialMT-6f" transform="translate(305.517578 0)"/>
       <use xlink:href="#ArialMT-6e" transform="translate(361.132812 0)"/>
       <use xlink:href="#ArialMT-6e" transform="translate(416.748047 0)"/>
       <use xlink:href="#ArialMT-65" transform="translate(472.363281 0)"/>
       <use xlink:href="#ArialMT-63" transform="translate(527.978516 0)"/>
       <use xlink:href="#ArialMT-74" transform="translate(577.978516 0)"/>
       <use xlink:href="#ArialMT-69" transform="translate(605.761719 0)"/>
       <use xlink:href="#ArialMT-76" transform="translate(627.978516 0)"/>
       <use xlink:href="#ArialMT-69" transform="translate(677.978516 0)"/>
       <use xlink:href="#ArialMT-74" transform="translate(700.195312 0)"/>
       <use xlink:href="#ArialMT-79" transform="translate(727.978516 0)"/>
      </g>
     </g>
    </g>
   </g>
   <g id="matplotlib.axis_2">
    <g id="ytick_1">
     <g id="line2d_9">
      <defs>
       <path id="mb98bc0f1cd" d="M 0 0 
L -6 0 
" style="stroke: #262626; stroke-width: 1.25"/>
      </defs>
      <g>
       <use xlink:href="#mb98bc0f1cd" x="34.97" y="249.720999" style="fill: #262626; stroke: #262626; stroke-width: 1.25"/>
      </g>
     </g>
     <g id="text_9">
      <!-- −2 -->
      <g style="fill: #262626" transform="translate(12.928281 253.657796) scale(0.11 -0.11)">
       <defs>
        <path id="ArialMT-2212" d="M 3381 1997 
L 356 1997 
L 356 2522 
L 3381 2522 
L 3381 1997 
z
" transform="scale(0.015625)"/>
        <path id="ArialMT-32" d="M 3222 541 
L 3222 0 
L 194 0 
Q 188 203 259 391 
Q 375 700 629 1000 
Q 884 1300 1366 1694 
Q 2113 2306 2375 2664 
Q 2638 3022 2638 3341 
Q 2638 3675 2398 3904 
Q 2159 4134 1775 4134 
Q 1369 4134 1125 3890 
Q 881 3647 878 3216 
L 300 3275 
Q 359 3922 746 4261 
Q 1134 4600 1788 4600 
Q 2447 4600 2831 4234 
Q 3216 3869 3216 3328 
Q 3216 3053 3103 2787 
Q 2991 2522 2730 2228 
Q 2469 1934 1863 1422 
Q 1356 997 1212 845 
Q 1069 694 975 541 
L 3222 541 
z
" transform="scale(0.015625)"/>
       </defs>
       <use xlink:href="#ArialMT-2212"/>
       <use xlink:href="#ArialMT-32" transform="translate(58.398438 0)"/>
      </g>
     </g>
    </g>
    <g id="ytick_2">
     <g id="line2d_10">
      <g>
       <use xlink:href="#mb98bc0f1cd" x="34.97" y="208.442716" style="fill: #262626; stroke: #262626; stroke-width: 1.25"/>
      </g>
     </g>
     <g id="text_10">
      <!-- −1 -->
      <g style="fill: #262626" transform="translate(12.928281 212.379512) scale(0.11 -0.11)">
       <defs>
        <path id="ArialMT-31" d="M 2384 0 
L 1822 0 
L 1822 3584 
Q 1619 3391 1289 3197 
Q 959 3003 697 2906 
L 697 3450 
Q 1169 3672 1522 3987 
Q 1875 4303 2022 4600 
L 2384 4600 
L 2384 0 
z
" transform="scale(0.015625)"/>
       </defs>
       <use xlink:href="#ArialMT-2212"/>
       <use xlink:href="#ArialMT-31" transform="translate(58.398438 0)"/>
      </g>
     </g>
    </g>
    <g id="ytick_3">
     <g id="line2d_11">
      <g>
       <use xlink:href="#mb98bc0f1cd" x="34.97" y="167.164432" style="fill: #262626; stroke: #262626; stroke-width: 1.25"/>
      </g>
     </g>
     <g id="text_11">
      <!-- 0 -->
      <g style="fill: #262626" transform="translate(19.352969 171.101229) scale(0.11 -0.11)">
       <defs>
        <path id="ArialMT-30" d="M 266 2259 
Q 266 3072 433 3567 
Q 600 4063 929 4331 
Q 1259 4600 1759 4600 
Q 2128 4600 2406 4451 
Q 2684 4303 2865 4023 
Q 3047 3744 3150 3342 
Q 3253 2941 3253 2259 
Q 3253 1453 3087 958 
Q 2922 463 2592 192 
Q 2263 -78 1759 -78 
Q 1097 -78 719 397 
Q 266 969 266 2259 
z
M 844 2259 
Q 844 1131 1108 757 
Q 1372 384 1759 384 
Q 2147 384 2411 759 
Q 2675 1134 2675 2259 
Q 2675 3391 2411 3762 
Q 2147 4134 1753 4134 
Q 1366 4134 1134 3806 
Q 844 3388 844 2259 
z
" transform="scale(0.015625)"/>
       </defs>
       <use xlink:href="#ArialMT-30"/>
      </g>
     </g>
    </g>
    <g id="ytick_4">
     <g id="line2d_12">
      <g>
       <use xlink:href="#mb98bc0f1cd" x="34.97" y="125.886148" style="fill: #262626; stroke: #262626; stroke-width: 1.25"/>
      </g>
     </g>
     <g id="text_12">
      <!-- 1 -->
      <g style="fill: #262626" transform="translate(19.352969 129.822945) scale(0.11 -0.11)">
       <use xlink:href="#ArialMT-31"/>
      </g>
     </g>
    </g>
    <g id="ytick_5">
     <g id="line2d_13">
      <g>
       <use xlink:href="#mb98bc0f1cd" x="34.97" y="84.607864" style="fill: #262626; stroke: #262626; stroke-width: 1.25"/>
      </g>
     </g>
     <g id="text_13">
      <!-- 2 -->
      <g style="fill: #262626" transform="translate(19.352969 88.544661) scale(0.11 -0.11)">
       <use xlink:href="#ArialMT-32"/>
      </g>
     </g>
    </g>
    <g id="ytick_6">
     <g id="line2d_14">
      <g>
       <use xlink:href="#mb98bc0f1cd" x="34.97" y="43.329581" style="fill: #262626; stroke: #262626; stroke-width: 1.25"/>
      </g>
     </g>
     <g id="text_14">
      <!-- 3 -->
      <g style="fill: #262626" transform="translate(19.352969 47.266377) scale(0.11 -0.11)">
       <defs>
        <path id="ArialMT-33" d="M 269 1209 
L 831 1284 
Q 928 806 1161 595 
Q 1394 384 1728 384 
Q 2125 384 2398 659 
Q 2672 934 2672 1341 
Q 2672 1728 2419 1979 
Q 2166 2231 1775 2231 
Q 1616 2231 1378 2169 
L 1441 2663 
Q 1497 2656 1531 2656 
Q 1891 2656 2178 2843 
Q 2466 3031 2466 3422 
Q 2466 3731 2256 3934 
Q 2047 4138 1716 4138 
Q 1388 4138 1169 3931 
Q 950 3725 888 3313 
L 325 3413 
Q 428 3978 793 4289 
Q 1159 4600 1703 4600 
Q 2078 4600 2393 4439 
Q 2709 4278 2876 4000 
Q 3044 3722 3044 3409 
Q 3044 3113 2884 2869 
Q 2725 2625 2413 2481 
Q 2819 2388 3044 2092 
Q 3269 1797 3269 1353 
Q 3269 753 2831 336 
Q 2394 -81 1725 -81 
Q 1122 -81 723 278 
Q 325 638 269 1209 
z
" transform="scale(0.015625)"/>
       </defs>
       <use xlink:href="#ArialMT-33"/>
      </g>
     </g>
    </g>
   </g>
   <g id="FillBetweenPolyCollection_1">
    <defs>
     <path id="mdbf81de9f7" d="M 105.502915 -56.324054 
L 93.445835 -56.324054 
L 90.82555 -57.828405 
L 87.491573 -59.332755 
L 83.437693 -60.837106 
L 78.736788 -62.341456 
L 73.552415 -63.845807 
L 68.135601 -65.350157 
L 62.80375 -66.854508 
L 57.902814 -68.358858 
L 53.758726 -69.863209 
L 50.627971 -71.36756 
L 48.658578 -72.87191 
L 47.870875 -74.376261 
L 48.162399 -75.880611 
L 49.334899 -77.384962 
L 51.135599 -78.889312 
L 53.301725 -80.393663 
L 55.597859 -81.898013 
L 57.839371 -83.402364 
L 59.900505 -84.906714 
L 61.710447 -86.411065 
L 63.243155 -87.915415 
L 64.506469 -89.419766 
L 65.533536 -90.924116 
L 66.376627 -92.428467 
L 67.101363 -93.932817 
L 67.779193 -95.437168 
L 68.477452 -96.941518 
L 69.248483 -98.445869 
L 70.120801 -99.950219 
L 71.095323 -101.45457 
L 72.148118 -102.95892 
L 73.238804 -104.463271 
L 74.321668 -105.967621 
L 75.355839 -107.471972 
L 76.311654 -108.976323 
L 77.172199 -110.480673 
L 77.931126 -111.985024 
L 78.589003 -113.489374 
L 79.150499 -114.993725 
L 79.623517 -116.498075 
L 80.019896 -118.002426 
L 80.35617 -119.506776 
L 80.652782 -121.011127 
L 80.930998 -122.515477 
L 81.208099 -124.019828 
L 81.49251 -125.524178 
L 81.78076 -127.028529 
L 82.057498 -128.532879 
L 82.29852 -130.03723 
L 82.475584 -131.54158 
L 82.561283 -133.045931 
L 82.532571 -134.550281 
L 82.372526 -136.054632 
L 82.070914 -137.558982 
L 81.624629 -139.063333 
L 81.038759 -140.567683 
L 80.328129 -142.072034 
L 79.518266 -143.576384 
L 78.644361 -145.080735 
L 77.747341 -146.585086 
L 76.86749 -148.089436 
L 76.03741 -149.593787 
L 75.276929 -151.098137 
L 74.592115 -152.602488 
L 73.979083 -154.106838 
L 73.431206 -155.611189 
L 72.946785 -157.115539 
L 72.533793 -158.61989 
L 72.20951 -160.12424 
L 71.994971 -161.628591 
L 71.906488 -163.132941 
L 71.947796 -164.637292 
L 72.106145 -166.141642 
L 72.353966 -167.645993 
L 72.655331 -169.150343 
L 72.974556 -170.654694 
L 73.283606 -172.159044 
L 73.565946 -173.663395 
L 73.816403 -175.167745 
L 74.038569 -176.672096 
L 74.242314 -178.176446 
L 74.443497 -179.680797 
L 74.66634 -181.185148 
L 74.946927 -182.689498 
L 75.335009 -184.193849 
L 75.891369 -185.698199 
L 76.679565 -187.20255 
L 77.75318 -188.7069 
L 79.141836 -190.211251 
L 80.840196 -191.715601 
L 82.803563 -193.219952 
L 84.95179 -194.724302 
L 87.180706 -196.228653 
L 89.37814 -197.733003 
L 91.44054 -199.237354 
L 93.286454 -200.741704 
L 94.864383 -202.246055 
L 96.154329 -203.750405 
L 97.163944 -205.254756 
L 101.784806 -205.254756 
L 101.784806 -205.254756 
L 102.794421 -203.750405 
L 104.084367 -202.246055 
L 105.662296 -200.741704 
L 107.50821 -199.237354 
L 109.57061 -197.733003 
L 111.768044 -196.228653 
L 113.99696 -194.724302 
L 116.145187 -193.219952 
L 118.108554 -191.715601 
L 119.806914 -190.211251 
L 121.19557 -188.7069 
L 122.269185 -187.20255 
L 123.057381 -185.698199 
L 123.613741 -184.193849 
L 124.001823 -182.689498 
L 124.28241 -181.185148 
L 124.505253 -179.680797 
L 124.706436 -178.176446 
L 124.910181 -176.672096 
L 125.132347 -175.167745 
L 125.382804 -173.663395 
L 125.665144 -172.159044 
L 125.974194 -170.654694 
L 126.293419 -169.150343 
L 126.594784 -167.645993 
L 126.842605 -166.141642 
L 127.000954 -164.637292 
L 127.042262 -163.132941 
L 126.953779 -161.628591 
L 126.73924 -160.12424 
L 126.414957 -158.61989 
L 126.001965 -157.115539 
L 125.517544 -155.611189 
L 124.969667 -154.106838 
L 124.356635 -152.602488 
L 123.671821 -151.098137 
L 122.91134 -149.593787 
L 122.08126 -148.089436 
L 121.201409 -146.585086 
L 120.304389 -145.080735 
L 119.430484 -143.576384 
L 118.620621 -142.072034 
L 117.909991 -140.567683 
L 117.324121 -139.063333 
L 116.877836 -137.558982 
L 116.576224 -136.054632 
L 116.416179 -134.550281 
L 116.387467 -133.045931 
L 116.473166 -131.54158 
L 116.65023 -130.03723 
L 116.891252 -128.532879 
L 117.16799 -127.028529 
L 117.45624 -125.524178 
L 117.740651 -124.019828 
L 118.017752 -122.515477 
L 118.295968 -121.011127 
L 118.59258 -119.506776 
L 118.928854 -118.002426 
L 119.325233 -116.498075 
L 119.798251 -114.993725 
L 120.359747 -113.489374 
L 121.017624 -111.985024 
L 121.776551 -110.480673 
L 122.637096 -108.976323 
L 123.592911 -107.471972 
L 124.627082 -105.967621 
L 125.709946 -104.463271 
L 126.800632 -102.95892 
L 127.853427 -101.45457 
L 128.827949 -99.950219 
L 129.700267 -98.445869 
L 130.471298 -96.941518 
L 131.169557 -95.437168 
L 131.847387 -93.932817 
L 132.572123 -92.428467 
L 133.415214 -90.924116 
L 134.442281 -89.419766 
L 135.705595 -87.915415 
L 137.238303 -86.411065 
L 139.048245 -84.906714 
L 141.109379 -83.402364 
L 143.350891 -81.898013 
L 145.647025 -80.393663 
L 147.813151 -78.889312 
L 149.613851 -77.384962 
L 150.786351 -75.880611 
L 151.077875 -74.376261 
L 150.290172 -72.87191 
L 148.320779 -71.36756 
L 145.190024 -69.863209 
L 141.045936 -68.358858 
L 136.145 -66.854508 
L 130.813149 -65.350157 
L 125.396335 -63.845807 
L 120.211962 -62.341456 
L 115.511057 -60.837106 
L 111.457177 -59.332755 
L 108.1232 -57.828405 
L 105.502915 -56.324054 
z
" style="stroke: #3e3e3e; stroke-width: 3"/>
    </defs>
    <g clip-path="url(#p1b2ff0d4c9)">
     <use xlink:href="#mdbf81de9f7" x="0" y="288" style="fill: #cb3335; stroke: #3e3e3e; stroke-width: 3"/>
    </g>
   </g>
   <g id="FillBetweenPolyCollection_2">
    <defs>
     <path id="m64cdcb49bd" d="M 235.299757 -47.939589 
L 221.666493 -47.939589 
L 218.642957 -49.488571 
L 214.796916 -51.037554 
L 210.142589 -52.586536 
L 204.802704 -54.135519 
L 199.024259 -55.684501 
L 193.173483 -57.233484 
L 187.705281 -58.782466 
L 183.108286 -60.331449 
L 179.833594 -61.880431 
L 178.220922 -63.429414 
L 178.438358 -64.978396 
L 180.449675 -66.527379 
L 184.016789 -68.076361 
L 188.736201 -69.625344 
L 194.100069 -71.174326 
L 199.567461 -72.723309 
L 204.630865 -74.272291 
L 208.86686 -75.821274 
L 211.966246 -77.370256 
L 213.745335 -78.919239 
L 214.144319 -80.468221 
L 213.219459 -82.017204 
L 211.133621 -83.566186 
L 208.145788 -85.115169 
L 204.59663 -86.664151 
L 200.885722 -88.213134 
L 197.437372 -89.762116 
L 194.655784 -91.311099 
L 192.875 -92.860081 
L 192.312717 -94.409064 
L 193.038033 -95.958046 
L 194.960788 -97.507029 
L 197.845114 -99.056011 
L 201.343839 -100.604994 
L 205.045597 -102.153976 
L 208.524552 -103.702959 
L 211.384051 -105.251941 
L 213.2894 -106.800924 
L 213.989675 -108.349906 
L 213.33198 -109.898889 
L 211.272488 -111.447871 
L 207.886703 -112.996854 
L 203.377596 -114.545836 
L 198.076438 -116.094819 
L 192.42922 -117.643801 
L 186.962957 -119.192784 
L 182.230848 -120.741766 
L 178.741993 -122.290749 
L 176.887681 -123.839731 
L 176.879625 -125.388714 
L 178.714414 -126.937696 
L 182.172684 -128.486679 
L 186.85303 -130.035661 
L 192.232178 -131.584644 
L 197.737369 -133.133626 
L 202.815906 -134.682609 
L 206.990371 -136.231591 
L 209.894427 -137.780574 
L 211.290658 -139.329556 
L 211.076268 -140.878539 
L 209.283151 -142.427521 
L 206.076164 -143.976504 
L 201.748892 -145.525486 
L 196.712128 -147.074469 
L 191.468762 -148.623451 
L 186.570862 -150.172434 
L 182.559944 -151.721416 
L 179.897983 -153.270399 
L 178.901909 -154.819381 
L 179.696098 -156.368364 
L 182.194379 -157.917346 
L 186.116349 -159.466329 
L 191.034241 -161.015311 
L 196.439327 -162.564294 
L 201.813085 -164.113276 
L 206.689202 -165.662259 
L 210.697145 -167.211241 
L 213.584573 -168.760224 
L 215.221754 -170.309206 
L 215.594497 -171.858189 
L 214.792233 -173.407171 
L 212.995298 -174.956154 
L 210.46175 -176.505136 
L 207.511077 -178.054119 
L 204.50123 -179.603101 
L 201.797035 -181.152084 
L 199.731518 -182.701066 
L 198.565583 -184.250049 
L 198.454053 -185.799031 
L 199.426177 -187.348014 
L 201.385947 -188.896996 
L 204.132893 -190.445979 
L 207.398903 -191.994961 
L 210.892824 -193.543944 
L 214.343325 -195.092926 
L 217.531861 -196.641909 
L 220.311008 -198.190891 
L 222.607507 -199.739874 
L 224.412879 -201.288856 
L 232.553371 -201.288856 
L 232.553371 -201.288856 
L 234.358743 -199.739874 
L 236.655242 -198.190891 
L 239.434389 -196.641909 
L 242.622925 -195.092926 
L 246.073426 -193.543944 
L 249.567347 -191.994961 
L 252.833357 -190.445979 
L 255.580303 -188.896996 
L 257.540073 -187.348014 
L 258.512197 -185.799031 
L 258.400667 -184.250049 
L 257.234732 -182.701066 
L 255.169215 -181.152084 
L 252.46502 -179.603101 
L 249.455173 -178.054119 
L 246.5045 -176.505136 
L 243.970952 -174.956154 
L 242.174017 -173.407171 
L 241.371753 -171.858189 
L 241.744496 -170.309206 
L 243.381677 -168.760224 
L 246.269105 -167.211241 
L 250.277048 -165.662259 
L 255.153165 -164.113276 
L 260.526923 -162.564294 
L 265.932009 -161.015311 
L 270.849901 -159.466329 
L 274.771871 -157.917346 
L 277.270152 -156.368364 
L 278.064341 -154.819381 
L 277.068267 -153.270399 
L 274.406306 -151.721416 
L 270.395388 -150.172434 
L 265.497488 -148.623451 
L 260.254122 -147.074469 
L 255.217358 -145.525486 
L 250.890086 -143.976504 
L 247.683099 -142.427521 
L 245.889982 -140.878539 
L 245.675592 -139.329556 
L 247.071823 -137.780574 
L 249.975879 -136.231591 
L 254.150344 -134.682609 
L 259.228881 -133.133626 
L 264.734072 -131.584644 
L 270.11322 -130.035661 
L 274.793566 -128.486679 
L 278.251836 -126.937696 
L 280.086625 -125.388714 
L 280.078569 -123.839731 
L 278.224257 -122.290749 
L 274.735402 -120.741766 
L 270.003293 -119.192784 
L 264.53703 -117.643801 
L 258.889812 -116.094819 
L 253.588654 -114.545836 
L 249.079547 -112.996854 
L 245.693762 -111.447871 
L 243.63427 -109.898889 
L 242.976575 -108.349906 
L 243.67685 -106.800924 
L 245.582199 -105.251941 
L 248.441698 -103.702959 
L 251.920653 -102.153976 
L 255.622411 -100.604994 
L 259.121136 -99.056011 
L 262.005462 -97.507029 
L 263.928217 -95.958046 
L 264.653533 -94.409064 
L 264.09125 -92.860081 
L 262.310466 -91.311099 
L 259.528878 -89.762116 
L 256.080528 -88.213134 
L 252.36962 -86.664151 
L 248.820462 -85.115169 
L 245.832629 -83.566186 
L 243.746791 -82.017204 
L 242.821931 -80.468221 
L 243.220915 -78.919239 
L 245.000004 -77.370256 
L 248.09939 -75.821274 
L 252.335385 -74.272291 
L 257.398789 -72.723309 
L 262.866181 -71.174326 
L 268.230049 -69.625344 
L 272.949461 -68.076361 
L 276.516575 -66.527379 
L 278.527892 -64.978396 
L 278.745328 -63.429414 
L 277.132656 -61.880431 
L 273.857964 -60.331449 
L 269.260969 -58.782466 
L 263.792767 -57.233484 
L 257.941991 -55.684501 
L 252.163546 -54.135519 
L 246.823661 -52.586536 
L 242.169334 -51.037554 
L 238.323293 -49.488571 
L 235.299757 -47.939589 
z
" style="stroke: #3e3e3e; stroke-width: 3"/>
    </defs>
    <g clip-path="url(#p1b2ff0d4c9)">
     <use xlink:href="#m64cdcb49bd" x="0" y="288" style="fill: #477ca8; stroke: #3e3e3e; stroke-width: 3"/>
    </g>
   </g>
   <g id="FillBetweenPolyCollection_3">
    <defs>
     <path id="md80cbf69f2" d="M 362.154658 -42.304104 
L 352.829092 -42.304104 
L 350.919487 -43.748383 
L 348.522198 -45.192662 
L 345.639472 -46.636941 
L 342.327901 -48.08122 
L 338.707424 -49.525499 
L 334.961619 -50.969778 
L 331.326793 -52.414057 
L 328.069483 -53.858335 
L 325.454632 -55.302614 
L 323.709255 -56.746893 
L 322.988128 -58.191172 
L 323.348174 -59.635451 
L 324.736777 -61.07973 
L 326.99634 -62.524009 
L 329.884064 -63.968288 
L 333.102824 -65.412567 
L 336.337299 -66.856846 
L 339.289245 -68.301124 
L 341.707095 -69.745403 
L 343.407144 -71.189682 
L 344.285698 -72.633961 
L 344.323076 -74.07824 
L 343.58088 -75.522519 
L 342.193723 -76.966798 
L 340.355906 -78.411077 
L 338.303186 -79.855356 
L 336.289909 -81.299635 
L 334.562682 -82.743914 
L 333.332987 -84.188192 
L 332.752267 -85.632471 
L 332.893355 -87.07675 
L 333.741523 -88.521029 
L 335.196827 -89.965308 
L 337.087309 -91.409587 
L 339.190642 -92.853866 
L 341.260512 -94.298145 
L 343.053781 -95.742424 
L 344.3552 -97.186703 
L 344.997672 -98.630982 
L 344.877342 -100.07526 
L 343.963496 -101.519539 
L 342.30332 -102.963818 
L 340.021097 -104.408097 
L 337.310863 -105.852376 
L 334.421467 -107.296655 
L 331.633678 -108.740934 
L 329.230522 -110.185213 
L 327.463894 -111.629492 
L 326.522206 -113.073771 
L 326.504456 -114.518049 
L 327.405526 -115.962328 
L 329.115514 -117.406607 
L 331.433197 -118.850886 
L 334.091007 -120.295165 
L 336.786974 -121.739444 
L 339.218489 -123.183723 
L 341.113442 -124.628002 
L 342.255814 -126.072281 
L 342.50451 -127.51656 
L 341.805413 -128.960839 
L 340.196997 -130.405117 
L 337.809406 -131.849396 
L 334.856265 -133.293675 
L 331.618159 -134.737954 
L 328.417237 -136.182233 
L 325.58392 -137.626512 
L 323.418738 -139.070791 
L 322.154336 -140.51507 
L 321.923679 -141.959349 
L 322.740137 -143.403628 
L 324.493145 -144.847906 
L 326.960207 -146.292185 
L 329.832924 -147.736464 
L 332.752386 -149.180743 
L 335.348355 -150.625022 
L 337.277217 -152.069301 
L 338.255234 -153.51358 
L 338.085397 -154.957859 
L 336.677393 -156.402138 
L 334.060386 -157.846417 
L 330.387685 -159.290696 
L 325.931384 -160.734974 
L 321.064752 -162.179253 
L 316.230969 -163.623532 
L 311.899108 -165.067811 
L 308.511504 -166.51209 
L 306.429734 -167.956369 
L 305.888375 -169.400648 
L 306.965352 -170.844927 
L 309.575017 -172.289206 
L 313.48556 -173.733485 
L 318.357249 -175.177764 
L 323.793705 -176.622042 
L 329.396212 -178.066321 
L 334.811295 -179.5106 
L 339.764367 -180.954879 
L 344.076026 -182.399158 
L 347.661623 -183.843437 
L 350.517799 -185.287716 
L 364.465951 -185.287716 
L 364.465951 -185.287716 
L 367.322127 -183.843437 
L 370.907724 -182.399158 
L 375.219383 -180.954879 
L 380.172455 -179.5106 
L 385.587538 -178.066321 
L 391.190045 -176.622042 
L 396.626501 -175.177764 
L 401.49819 -173.733485 
L 405.408733 -172.289206 
L 408.018398 -170.844927 
L 409.095375 -169.400648 
L 408.554016 -167.956369 
L 406.472246 -166.51209 
L 403.084642 -165.067811 
L 398.752781 -163.623532 
L 393.918998 -162.179253 
L 389.052366 -160.734974 
L 384.596065 -159.290696 
L 380.923364 -157.846417 
L 378.306357 -156.402138 
L 376.898353 -154.957859 
L 376.728516 -153.51358 
L 377.706533 -152.069301 
L 379.635395 -150.625022 
L 382.231364 -149.180743 
L 385.150826 -147.736464 
L 388.023543 -146.292185 
L 390.490605 -144.847906 
L 392.243613 -143.403628 
L 393.060071 -141.959349 
L 392.829414 -140.51507 
L 391.565012 -139.070791 
L 389.39983 -137.626512 
L 386.566513 -136.182233 
L 383.365591 -134.737954 
L 380.127485 -133.293675 
L 377.174344 -131.849396 
L 374.786753 -130.405117 
L 373.178337 -128.960839 
L 372.47924 -127.51656 
L 372.727936 -126.072281 
L 373.870308 -124.628002 
L 375.765261 -123.183723 
L 378.196776 -121.739444 
L 380.892743 -120.295165 
L 383.550553 -118.850886 
L 385.868236 -117.406607 
L 387.578224 -115.962328 
L 388.479294 -114.518049 
L 388.461544 -113.073771 
L 387.519856 -111.629492 
L 385.753228 -110.185213 
L 383.350072 -108.740934 
L 380.562283 -107.296655 
L 377.672887 -105.852376 
L 374.962653 -104.408097 
L 372.68043 -102.963818 
L 371.020254 -101.519539 
L 370.106408 -100.07526 
L 369.986078 -98.630982 
L 370.62855 -97.186703 
L 371.929969 -95.742424 
L 373.723238 -94.298145 
L 375.793108 -92.853866 
L 377.896441 -91.409587 
L 379.786923 -89.965308 
L 381.242227 -88.521029 
L 382.090395 -87.07675 
L 382.231483 -85.632471 
L 381.650763 -84.188192 
L 380.421068 -82.743914 
L 378.693841 -81.299635 
L 376.680564 -79.855356 
L 374.627844 -78.411077 
L 372.790027 -76.966798 
L 371.40287 -75.522519 
L 370.660674 -74.07824 
L 370.698052 -72.633961 
L 371.576606 -71.189682 
L 373.276655 -69.745403 
L 375.694505 -68.301124 
L 378.646451 -66.856846 
L 381.880926 -65.412567 
L 385.099686 -63.968288 
L 387.98741 -62.524009 
L 390.246973 -61.07973 
L 391.635576 -59.635451 
L 391.995622 -58.191172 
L 391.274495 -56.746893 
L 389.529118 -55.302614 
L 386.914267 -53.858335 
L 383.656957 -52.414057 
L 380.022131 -50.969778 
L 376.276326 -49.525499 
L 372.655849 -48.08122 
L 369.344278 -46.636941 
L 366.461552 -45.192662 
L 364.064263 -43.748383 
L 362.154658 -42.304104 
z
" style="stroke: #3e3e3e; stroke-width: 3"/>
    </defs>
    <g clip-path="url(#p1b2ff0d4c9)">
     <use xlink:href="#md80cbf69f2" x="0" y="288" style="fill: #59a257; stroke: #3e3e3e; stroke-width: 3"/>
    </g>
   </g>
   <g id="FillBetweenPolyCollection_4">
    <defs>
     <path id="m88b984a8bf" d="M 493.487942 -53.47587 
L 479.513308 -53.47587 
L 476.707801 -54.960157 
L 473.197124 -56.444444 
L 468.982614 -57.928731 
L 464.140966 -59.413018 
L 458.837043 -60.897305 
L 453.325176 -62.381592 
L 447.935515 -63.865879 
L 443.044667 -65.350166 
L 439.033283 -66.834453 
L 436.236701 -68.31874 
L 434.897125 -69.803027 
L 435.126387 -71.287314 
L 436.886698 -72.771601 
L 439.993283 -74.255888 
L 444.138327 -75.740175 
L 448.931402 -77.224462 
L 453.948657 -78.708749 
L 458.782188 -80.193036 
L 463.082146 -81.677323 
L 466.586714 -83.16161 
L 469.138181 -84.645897 
L 470.685959 -86.130184 
L 471.27904 -87.614471 
L 471.050811 -89.098758 
L 470.198808 -90.583045 
L 468.961251 -92.067332 
L 467.591761 -93.551619 
L 466.333576 -95.035906 
L 465.395025 -96.520193 
L 464.928482 -98.00448 
L 465.015222 -99.488767 
L 465.658244 -100.973054 
L 466.784125 -102.457341 
L 468.253599 -103.941628 
L 469.879186 -105.425915 
L 471.447306 -106.910202 
L 472.741988 -108.394489 
L 473.567676 -109.878776 
L 473.769351 -111.363063 
L 473.248916 -112.84735 
L 471.97718 -114.331637 
L 470.000737 -115.815924 
L 467.442766 -117.300211 
L 464.496495 -118.784498 
L 461.410364 -120.268785 
L 458.464805 -121.753072 
L 455.942152 -123.237359 
L 454.092996 -124.721646 
L 453.103729 -126.205933 
L 453.070622 -127.69022 
L 453.98502 -129.174507 
L 455.732411 -130.658794 
L 458.10551 -132.143081 
L 460.828983 -133.627368 
L 463.591546 -135.111655 
L 466.080538 -136.595942 
L 468.014493 -138.080229 
L 469.170566 -139.564516 
L 469.405095 -141.048803 
L 468.666744 -142.53309 
L 467.002096 -144.017377 
L 464.553502 -145.501664 
L 461.548647 -146.985951 
L 458.281344 -148.470238 
L 455.083766 -149.954525 
L 452.291783 -151.438812 
L 450.206879 -152.9231 
L 449.059747 -154.407387 
L 448.981299 -155.891674 
L 449.986167 -157.375961 
L 451.971775 -158.860248 
L 454.73314 -160.344535 
L 457.990661 -161.828822 
L 461.425865 -163.313109 
L 464.719202 -164.797396 
L 467.58444 -166.281683 
L 469.795783 -167.76597 
L 471.205827 -169.250257 
L 471.754238 -170.734544 
L 471.468112 -172.218831 
L 470.455289 -173.703118 
L 468.891678 -175.187405 
L 467.003318 -176.671692 
L 465.043923 -178.155979 
L 463.26921 -179.640266 
L 461.910153 -181.124553 
L 461.148286 -182.60884 
L 461.096586 -184.093127 
L 461.789104 -185.577414 
L 463.181232 -187.061701 
L 465.160617 -188.545988 
L 467.566637 -190.030275 
L 470.214776 -191.514562 
L 472.921484 -192.998849 
L 475.52542 -194.483136 
L 477.902115 -195.967423 
L 479.970833 -197.45171 
L 481.694018 -198.935997 
L 483.071056 -200.420284 
L 489.930194 -200.420284 
L 489.930194 -200.420284 
L 491.307232 -198.935997 
L 493.030417 -197.45171 
L 495.099135 -195.967423 
L 497.47583 -194.483136 
L 500.079766 -192.998849 
L 502.786474 -191.514562 
L 505.434613 -190.030275 
L 507.840633 -188.545988 
L 509.820018 -187.061701 
L 511.212146 -185.577414 
L 511.904664 -184.093127 
L 511.852964 -182.60884 
L 511.091097 -181.124553 
L 509.73204 -179.640266 
L 507.957327 -178.155979 
L 505.997932 -176.671692 
L 504.109572 -175.187405 
L 502.545961 -173.703118 
L 501.533138 -172.218831 
L 501.247012 -170.734544 
L 501.795423 -169.250257 
L 503.205467 -167.76597 
L 505.41681 -166.281683 
L 508.282048 -164.797396 
L 511.575385 -163.313109 
L 515.010589 -161.828822 
L 518.26811 -160.344535 
L 521.029475 -158.860248 
L 523.015083 -157.375961 
L 524.019951 -155.891674 
L 523.941503 -154.407387 
L 522.794371 -152.9231 
L 520.709467 -151.438812 
L 517.917484 -149.954525 
L 514.719906 -148.470238 
L 511.452603 -146.985951 
L 508.447748 -145.501664 
L 505.999154 -144.017377 
L 504.334506 -142.53309 
L 503.596155 -141.048803 
L 503.830684 -139.564516 
L 504.986757 -138.080229 
L 506.920712 -136.595942 
L 509.409704 -135.111655 
L 512.172267 -133.627368 
L 514.89574 -132.143081 
L 517.268839 -130.658794 
L 519.01623 -129.174507 
L 519.930628 -127.69022 
L 519.897521 -126.205933 
L 518.908254 -124.721646 
L 517.059098 -123.237359 
L 514.536445 -121.753072 
L 511.590886 -120.268785 
L 508.504755 -118.784498 
L 505.558484 -117.300211 
L 503.000513 -115.815924 
L 501.02407 -114.331637 
L 499.752334 -112.84735 
L 499.231899 -111.363063 
L 499.433574 -109.878776 
L 500.259262 -108.394489 
L 501.553944 -106.910202 
L 503.122064 -105.425915 
L 504.747651 -103.941628 
L 506.217125 -102.457341 
L 507.343006 -100.973054 
L 507.986028 -99.488767 
L 508.072768 -98.00448 
L 507.606225 -96.520193 
L 506.667674 -95.035906 
L 505.409489 -93.551619 
L 504.039999 -92.067332 
L 502.802442 -90.583045 
L 501.950439 -89.098758 
L 501.72221 -87.614471 
L 502.315291 -86.130184 
L 503.863069 -84.645897 
L 506.414536 -83.16161 
L 509.919104 -81.677323 
L 514.219062 -80.193036 
L 519.052593 -78.708749 
L 524.069848 -77.224462 
L 528.862923 -75.740175 
L 533.007967 -74.255888 
L 536.114552 -72.771601 
L 537.874863 -71.287314 
L 538.104125 -69.803027 
L 536.764549 -68.31874 
L 533.967967 -66.834453 
L 529.956583 -65.350166 
L 525.065735 -63.865879 
L 519.676074 -62.381592 
L 514.164207 -60.897305 
L 508.860284 -59.413018 
L 504.018636 -57.928731 
L 499.804126 -56.444444 
L 496.293449 -54.960157 
L 493.487942 -53.47587 
z
" style="stroke: #3e3e3e; stroke-width: 3"/>
    </defs>
    <g clip-path="url(#p1b2ff0d4c9)">
     <use xlink:href="#m88b984a8bf" x="0" y="288" style="fill: #905998; stroke: #3e3e3e; stroke-width: 3"/>
    </g>
   </g>
   <g id="FillBetweenPolyCollection_5">
    <defs>
     <path id="m96cfd1ee02" d="M 622.486127 -57.523009 
L 608.532623 -57.523009 
L 605.627534 -58.978601 
L 601.970635 -60.434193 
L 597.567213 -61.889786 
L 592.509368 -63.345378 
L 586.990077 -64.800971 
L 581.302824 -66.256563 
L 575.822859 -67.712155 
L 570.969727 -69.167748 
L 567.155218 -70.62334 
L 564.725141 -72.078933 
L 563.905875 -73.534525 
L 564.766644 -74.990117 
L 567.205515 -76.44571 
L 570.962031 -77.901302 
L 575.65354 -79.356894 
L 580.827413 -80.812487 
L 586.01872 -82.268079 
L 590.803189 -83.723672 
L 594.837971 -85.179264 
L 597.886659 -86.634856 
L 599.828911 -88.090449 
L 600.657592 -89.546041 
L 600.467277 -91.001634 
L 599.437252 -92.457226 
L 597.81083 -93.912818 
L 595.871533 -95.368411 
L 593.916328 -96.824003 
L 592.226748 -98.279595 
L 591.040017 -99.735188 
L 590.523593 -101.19078 
L 590.757054 -102.646373 
L 591.724642 -104.101965 
L 593.319992 -105.557557 
L 595.362263 -107.01315 
L 597.620662 -108.468742 
L 599.843057 -109.924335 
L 601.784252 -111.379927 
L 603.230521 -112.835519 
L 604.018615 -114.291112 
L 604.048965 -115.746704 
L 603.293695 -117.202296 
L 601.800018 -118.657889 
L 599.688923 -120.113481 
L 597.148213 -121.569074 
L 594.418618 -123.024666 
L 591.772278 -124.480258 
L 589.484402 -125.935851 
L 587.800962 -127.391443 
L 586.907066 -128.847036 
L 586.901553 -130.302628 
L 587.782696 -131.75822 
L 589.447949 -133.213813 
L 591.707746 -134.669405 
L 594.310512 -136.124997 
L 596.974069 -137.58059 
L 599.418021 -139.036182 
L 601.39257 -140.491775 
L 602.701 -141.947367 
L 603.215036 -143.402959 
L 602.883674 -144.858552 
L 601.73648 -146.314144 
L 599.881907 -147.769736 
L 597.500238 -149.225329 
L 594.83017 -150.680921 
L 592.148166 -152.136514 
L 589.740956 -153.592106 
L 587.873431 -155.047698 
L 586.756119 -156.503291 
L 586.517636 -157.958883 
L 587.187309 -159.414476 
L 588.691503 -160.870068 
L 590.86444 -162.32566 
L 593.471303 -163.781253 
L 596.239051 -165.236845 
L 598.889389 -166.692437 
L 601.168808 -168.14803 
L 602.872254 -169.603622 
L 603.859099 -171.059215 
L 604.061794 -172.514807 
L 603.488462 -173.970399 
L 602.220587 -175.425992 
L 600.406169 -176.881584 
L 598.247985 -178.337177 
L 595.986299 -179.792769 
L 593.87609 -181.248361 
L 592.160203 -182.703954 
L 591.041582 -184.159546 
L 590.658912 -185.615138 
L 591.070258 -187.070731 
L 592.248137 -188.526323 
L 594.087242 -189.981916 
L 596.423366 -191.437508 
L 599.059661 -192.8931 
L 601.795009 -194.348693 
L 604.44929 -195.804285 
L 606.881539 -197.259878 
L 608.999036 -198.71547 
L 610.75753 -200.171062 
L 612.154493 -201.626655 
L 618.864257 -201.626655 
L 618.864257 -201.626655 
L 620.26122 -200.171062 
L 622.019714 -198.71547 
L 624.137211 -197.259878 
L 626.56946 -195.804285 
L 629.223741 -194.348693 
L 631.959089 -192.8931 
L 634.595384 -191.437508 
L 636.931508 -189.981916 
L 638.770613 -188.526323 
L 639.948492 -187.070731 
L 640.359838 -185.615138 
L 639.977168 -184.159546 
L 638.858547 -182.703954 
L 637.14266 -181.248361 
L 635.032451 -179.792769 
L 632.770765 -178.337177 
L 630.612581 -176.881584 
L 628.798163 -175.425992 
L 627.530288 -173.970399 
L 626.956956 -172.514807 
L 627.159651 -171.059215 
L 628.146496 -169.603622 
L 629.849942 -168.14803 
L 632.129361 -166.692437 
L 634.779699 -165.236845 
L 637.547447 -163.781253 
L 640.15431 -162.32566 
L 642.327247 -160.870068 
L 643.831441 -159.414476 
L 644.501114 -157.958883 
L 644.262631 -156.503291 
L 643.145319 -155.047698 
L 641.277794 -153.592106 
L 638.870584 -152.136514 
L 636.18858 -150.680921 
L 633.518512 -149.225329 
L 631.136843 -147.769736 
L 629.28227 -146.314144 
L 628.135076 -144.858552 
L 627.803714 -143.402959 
L 628.31775 -141.947367 
L 629.62618 -140.491775 
L 631.600729 -139.036182 
L 634.044681 -137.58059 
L 636.708238 -136.124997 
L 639.311004 -134.669405 
L 641.570801 -133.213813 
L 643.236054 -131.75822 
L 644.117197 -130.302628 
L 644.111684 -128.847036 
L 643.217788 -127.391443 
L 641.534348 -125.935851 
L 639.246472 -124.480258 
L 636.600132 -123.024666 
L 633.870537 -121.569074 
L 631.329827 -120.113481 
L 629.218732 -118.657889 
L 627.725055 -117.202296 
L 626.969785 -115.746704 
L 627.000135 -114.291112 
L 627.788229 -112.835519 
L 629.234498 -111.379927 
L 631.175693 -109.924335 
L 633.398088 -108.468742 
L 635.656487 -107.01315 
L 637.698758 -105.557557 
L 639.294108 -104.101965 
L 640.261696 -102.646373 
L 640.495157 -101.19078 
L 639.978733 -99.735188 
L 638.792002 -98.279595 
L 637.102422 -96.824003 
L 635.147217 -95.368411 
L 633.20792 -93.912818 
L 631.581498 -92.457226 
L 630.551473 -91.001634 
L 630.361158 -89.546041 
L 631.189839 -88.090449 
L 633.132091 -86.634856 
L 636.180779 -85.179264 
L 640.215561 -83.723672 
L 645.00003 -82.268079 
L 650.191337 -80.812487 
L 655.36521 -79.356894 
L 660.056719 -77.901302 
L 663.813235 -76.44571 
L 666.252106 -74.990117 
L 667.112875 -73.534525 
L 666.293609 -72.078933 
L 663.863532 -70.62334 
L 660.049023 -69.167748 
L 655.195891 -67.712155 
L 649.715926 -66.256563 
L 644.028673 -64.800971 
L 638.509382 -63.345378 
L 633.451537 -61.889786 
L 629.048115 -60.434193 
L 625.391216 -58.978601 
L 622.486127 -57.523009 
z
" style="stroke: #3e3e3e; stroke-width: 3"/>
    </defs>
    <g clip-path="url(#p1b2ff0d4c9)">
     <use xlink:href="#m96cfd1ee02" x="0" y="288" style="fill: #df7f20; stroke: #3e3e3e; stroke-width: 3"/>
    </g>
   </g>
   <g id="FillBetweenPolyCollection_6">
    <defs>
     <path id="mbd0c2cc1d6" d="M 751.493898 -55.311173 
L 737.542352 -55.311173 
L 734.632696 -56.801365 
L 730.969018 -58.291558 
L 726.556808 -59.78175 
L 721.488939 -61.271943 
L 715.959775 -62.762135 
L 710.264705 -64.252328 
L 704.781107 -65.74252 
L 699.930417 -67.232713 
L 696.125546 -68.722905 
L 693.712114 -70.213098 
L 692.914625 -71.70329 
L 693.798573 -73.193483 
L 696.256512 -74.683675 
L 700.020946 -76.173867 
L 704.701023 -77.66406 
L 709.835129 -79.154252 
L 714.94893 -80.644445 
L 719.608774 -82.134637 
L 723.463086 -83.62483 
L 726.268383 -85.115022 
L 727.900316 -86.605215 
L 728.352581 -88.095407 
L 727.727219 -89.5856 
L 726.218987 -91.075792 
L 724.095035 -92.565985 
L 721.66999 -94.056177 
L 719.276445 -95.54637 
L 717.231896 -97.036562 
L 715.804879 -98.526755 
L 715.184649 -100.016947 
L 715.459347 -101.50714 
L 716.606756 -102.997332 
L 718.499581 -104.487525 
L 720.92431 -105.977717 
L 723.610057 -107.46791 
L 726.262185 -108.958102 
L 728.59538 -110.448294 
L 730.362103 -111.938487 
L 731.374274 -113.428679 
L 731.517927 -114.918872 
L 730.761666 -116.409064 
L 729.159776 -117.899257 
L 726.850057 -119.389449 
L 724.045465 -120.879642 
L 721.018174 -122.369834 
L 718.075256 -123.860027 
L 715.52683 -125.350219 
L 713.649818 -126.840412 
L 712.652496 -128.330604 
L 712.645991 -129.820797 
L 713.628251 -131.310989 
L 715.483732 -132.801182 
L 717.998836 -134.291374 
L 720.889933 -135.781567 
L 723.838539 -137.271759 
L 726.527644 -138.761952 
L 728.674118 -140.252144 
L 730.054201 -141.742337 
L 730.521205 -143.232529 
L 730.016125 -144.722721 
L 728.572225 -146.212914 
L 726.314002 -147.703106 
L 723.449924 -149.193299 
L 720.25751 -150.683491 
L 717.059669 -152.173684 
L 714.192622 -153.663876 
L 711.968092 -155.154069 
L 710.634801 -156.644261 
L 710.345742 -158.134454 
L 711.137503 -159.624646 
L 712.92592 -161.114839 
L 715.519021 -162.605031 
L 718.644582 -164.095224 
L 721.986801 -165.585416 
L 725.22528 -167.075609 
L 728.070124 -168.565801 
L 730.288937 -170.055994 
L 731.724076 -171.546186 
L 732.300746 -173.036379 
L 732.027738 -174.526571 
L 730.99261 -176.016764 
L 729.352375 -177.506956 
L 727.31971 -178.997149 
L 725.144311 -180.487341 
L 723.089404 -181.977533 
L 721.404707 -183.467726 
L 720.298777 -184.957918 
L 719.914891 -186.448111 
L 720.314924 -187.938303 
L 721.474574 -189.428496 
L 723.291186 -190.918688 
L 725.602716 -192.408881 
L 728.214012 -193.899073 
L 730.925228 -195.389266 
L 733.557129 -196.879458 
L 735.969316 -198.369651 
L 738.069367 -199.859843 
L 739.813123 -201.350036 
L 741.197988 -202.840228 
L 747.838262 -202.840228 
L 747.838262 -202.840228 
L 749.223127 -201.350036 
L 750.966883 -199.859843 
L 753.066934 -198.369651 
L 755.479121 -196.879458 
L 758.111022 -195.389266 
L 760.822238 -193.899073 
L 763.433534 -192.408881 
L 765.745064 -190.918688 
L 767.561676 -189.428496 
L 768.721326 -187.938303 
L 769.121359 -186.448111 
L 768.737473 -184.957918 
L 767.631543 -183.467726 
L 765.946846 -181.977533 
L 763.891939 -180.487341 
L 761.71654 -178.997149 
L 759.683875 -177.506956 
L 758.04364 -176.016764 
L 757.008512 -174.526571 
L 756.735504 -173.036379 
L 757.312174 -171.546186 
L 758.747313 -170.055994 
L 760.966126 -168.565801 
L 763.81097 -167.075609 
L 767.049449 -165.585416 
L 770.391668 -164.095224 
L 773.517229 -162.605031 
L 776.11033 -161.114839 
L 777.898747 -159.624646 
L 778.690508 -158.134454 
L 778.401449 -156.644261 
L 777.068158 -155.154069 
L 774.843628 -153.663876 
L 771.976581 -152.173684 
L 768.77874 -150.683491 
L 765.586326 -149.193299 
L 762.722248 -147.703106 
L 760.464025 -146.212914 
L 759.020125 -144.722721 
L 758.515045 -143.232529 
L 758.982049 -141.742337 
L 760.362132 -140.252144 
L 762.508606 -138.761952 
L 765.197711 -137.271759 
L 768.146317 -135.781567 
L 771.037414 -134.291374 
L 773.552518 -132.801182 
L 775.407999 -131.310989 
L 776.390259 -129.820797 
L 776.383754 -128.330604 
L 775.386432 -126.840412 
L 773.50942 -125.350219 
L 770.960994 -123.860027 
L 768.018076 -122.369834 
L 764.990785 -120.879642 
L 762.186193 -119.389449 
L 759.876474 -117.899257 
L 758.274584 -116.409064 
L 757.518323 -114.918872 
L 757.661976 -113.428679 
L 758.674147 -111.938487 
L 760.44087 -110.448294 
L 762.774065 -108.958102 
L 765.426193 -107.46791 
L 768.11194 -105.977717 
L 770.536669 -104.487525 
L 772.429494 -102.997332 
L 773.576903 -101.50714 
L 773.851601 -100.016947 
L 773.231371 -98.526755 
L 771.804354 -97.036562 
L 769.759805 -95.54637 
L 767.36626 -94.056177 
L 764.941215 -92.565985 
L 762.817263 -91.075792 
L 761.309031 -89.5856 
L 760.683669 -88.095407 
L 761.135934 -86.605215 
L 762.767867 -85.115022 
L 765.573164 -83.62483 
L 769.427476 -82.134637 
L 774.08732 -80.644445 
L 779.201121 -79.154252 
L 784.335227 -77.66406 
L 789.015304 -76.173867 
L 792.779738 -74.683675 
L 795.237677 -73.193483 
L 796.121625 -71.70329 
L 795.324136 -70.213098 
L 792.910704 -68.722905 
L 789.105833 -67.232713 
L 784.255143 -65.74252 
L 778.771545 -64.252328 
L 773.076475 -62.762135 
L 767.547311 -61.271943 
L 762.479442 -59.78175 
L 758.067232 -58.291558 
L 754.403554 -56.801365 
L 751.493898 -55.311173 
z
" style="stroke: #3e3e3e; stroke-width: 3"/>
    </defs>
    <g clip-path="url(#p1b2ff0d4c9)">
     <use xlink:href="#mbd0c2cc1d6" x="0" y="288" style="fill: #e6e64c; stroke: #3e3e3e; stroke-width: 3"/>
    </g>
   </g>
   <g id="FillBetweenPolyCollection_7">
    <defs>
     <path id="m67e70d7b15" d="M 880.504302 -55.056429 
L 866.549448 -55.056429 
L 863.702513 -56.596372 
L 860.130687 -58.136314 
L 855.836935 -59.676257 
L 850.904381 -61.216199 
L 845.509655 -62.756142 
L 839.923518 -64.296084 
L 834.495106 -65.836027 
L 829.619168 -67.375969 
L 825.689551 -68.915912 
L 823.04594 -70.455854 
L 821.923375 -71.995797 
L 822.414373 -73.535739 
L 824.45138 -75.075682 
L 827.813124 -76.615624 
L 832.153432 -78.155567 
L 837.046549 -79.695509 
L 842.040229 -81.235452 
L 846.707413 -82.775394 
L 850.689077 -84.315337 
L 853.723895 -85.855279 
L 855.663708 -87.395222 
L 856.476271 -88.935164 
L 856.237975 -90.475107 
L 855.119111 -92.015049 
L 853.363475 -93.554992 
L 851.263285 -95.094934 
L 849.130193 -96.634877 
L 847.263758 -98.174819 
L 845.919885 -99.714762 
L 845.282795 -101.254704 
L 845.44455 -102.794647 
L 846.395487 -104.334589 
L 848.027296 -105.874532 
L 850.148205 -107.414474 
L 852.507621 -108.954417 
L 854.826165 -110.494359 
L 856.826723 -112.034302 
L 858.262924 -113.574244 
L 858.942759 -115.114187 
L 858.746422 -116.654129 
L 857.638219 -118.194072 
L 855.672472 -119.734014 
L 852.992835 -121.273957 
L 849.823869 -122.813899 
L 846.45373 -124.353842 
L 843.207632 -125.893784 
L 840.413564 -127.433727 
L 838.363857 -128.973669 
L 837.278116 -130.513612 
L 837.27373 -132.053554 
L 838.349458 -133.593497 
L 840.385271 -135.133439 
L 843.158478 -136.673382 
L 846.372994 -138.213324 
L 849.696323 -139.753267 
L 852.798088 -141.293209 
L 855.384676 -142.833152 
L 857.226414 -144.373094 
L 858.175818 -145.913037 
L 858.177119 -147.452979 
L 857.268086 -148.992922 
L 855.575034 -150.532864 
L 853.301362 -152.072807 
L 850.709475 -153.612749 
L 848.096182 -155.152692 
L 845.762602 -156.692634 
L 843.981176 -158.232577 
L 842.963908 -159.772519 
L 842.83674 -161.312462 
L 843.624602 -162.852404 
L 845.249992 -164.392347 
L 847.545425 -165.932289 
L 850.277365 -167.472232 
L 853.177201 -169.012174 
L 855.973944 -170.552117 
L 858.423772 -172.092059 
L 860.333024 -173.632002 
L 861.573158 -175.171944 
L 862.087822 -176.711887 
L 861.893165 -178.251829 
L 861.072681 -179.791772 
L 859.767515 -181.331714 
L 858.162645 -182.871657 
L 856.469232 -184.411599 
L 854.903792 -185.951542 
L 853.665746 -187.491484 
L 852.915845 -189.031427 
L 852.758646 -190.571369 
L 853.232047 -192.111312 
L 854.305943 -193.651254 
L 855.89036 -195.191197 
L 857.851536 -196.731139 
L 860.032844 -198.271082 
L 862.276613 -199.811024 
L 864.443098 -201.350967 
L 866.423805 -202.890909 
L 868.147924 -204.430852 
L 869.582131 -205.970794 
L 870.725258 -207.510737 
L 876.328492 -207.510737 
L 876.328492 -207.510737 
L 877.471619 -205.970794 
L 878.905826 -204.430852 
L 880.629945 -202.890909 
L 882.610652 -201.350967 
L 884.777137 -199.811024 
L 887.020906 -198.271082 
L 889.202214 -196.731139 
L 891.16339 -195.191197 
L 892.747807 -193.651254 
L 893.821703 -192.111312 
L 894.295104 -190.571369 
L 894.137905 -189.031427 
L 893.388004 -187.491484 
L 892.149958 -185.951542 
L 890.584518 -184.411599 
L 888.891105 -182.871657 
L 887.286235 -181.331714 
L 885.981069 -179.791772 
L 885.160585 -178.251829 
L 884.965928 -176.711887 
L 885.480592 -175.171944 
L 886.720726 -173.632002 
L 888.629978 -172.092059 
L 891.079806 -170.552117 
L 893.876549 -169.012174 
L 896.776385 -167.472232 
L 899.508325 -165.932289 
L 901.803758 -164.392347 
L 903.429148 -162.852404 
L 904.21701 -161.312462 
L 904.089842 -159.772519 
L 903.072574 -158.232577 
L 901.291148 -156.692634 
L 898.957568 -155.152692 
L 896.344275 -153.612749 
L 893.752388 -152.072807 
L 891.478716 -150.532864 
L 889.785664 -148.992922 
L 888.876631 -147.452979 
L 888.877932 -145.913037 
L 889.827336 -144.373094 
L 891.669074 -142.833152 
L 894.255662 -141.293209 
L 897.357427 -139.753267 
L 900.680756 -138.213324 
L 903.895272 -136.673382 
L 906.668479 -135.133439 
L 908.704292 -133.593497 
L 909.78002 -132.053554 
L 909.775634 -130.513612 
L 908.689893 -128.973669 
L 906.640186 -127.433727 
L 903.846118 -125.893784 
L 900.60002 -124.353842 
L 897.229881 -122.813899 
L 894.060915 -121.273957 
L 891.381278 -119.734014 
L 889.415531 -118.194072 
L 888.307328 -116.654129 
L 888.110991 -115.114187 
L 888.790826 -113.574244 
L 890.227027 -112.034302 
L 892.227585 -110.494359 
L 894.546129 -108.954417 
L 896.905545 -107.414474 
L 899.026454 -105.874532 
L 900.658263 -104.334589 
L 901.6092 -102.794647 
L 901.770955 -101.254704 
L 901.133865 -99.714762 
L 899.789992 -98.174819 
L 897.923557 -96.634877 
L 895.790465 -95.094934 
L 893.690275 -93.554992 
L 891.934639 -92.015049 
L 890.815775 -90.475107 
L 890.577479 -88.935164 
L 891.390042 -87.395222 
L 893.329855 -85.855279 
L 896.364673 -84.315337 
L 900.346337 -82.775394 
L 905.013521 -81.235452 
L 910.007201 -79.695509 
L 914.900318 -78.155567 
L 919.240626 -76.615624 
L 922.60237 -75.075682 
L 924.639377 -73.535739 
L 925.130375 -71.995797 
L 924.00781 -70.455854 
L 921.364199 -68.915912 
L 917.434582 -67.375969 
L 912.558644 -65.836027 
L 907.130232 -64.296084 
L 901.544095 -62.756142 
L 896.149369 -61.216199 
L 891.216815 -59.676257 
L 886.923063 -58.136314 
L 883.351237 -56.596372 
L 880.504302 -55.056429 
z
" style="stroke: #3e3e3e; stroke-width: 3"/>
    </defs>
    <g clip-path="url(#p1b2ff0d4c9)">
     <use xlink:href="#m67e70d7b15" x="0" y="288" style="fill: #965a38; stroke: #3e3e3e; stroke-width: 3"/>
    </g>
   </g>
   <g id="FillBetweenPolyCollection_8">
    <defs>
     <path id="m4dad205efd" d="M 1009.497312 -69.725534 
L 995.573938 -69.725534 
L 993.276205 -71.421096 
L 990.487164 -73.116659 
L 987.19797 -74.812221 
L 983.434115 -76.507783 
L 979.2622 -78.203345 
L 974.793446 -79.898907 
L 970.18266 -81.594469 
L 965.621793 -83.290031 
L 961.327958 -84.985594 
L 957.526664 -86.681156 
L 954.431861 -88.376718 
L 952.225168 -90.07228 
L 951.03698 -91.767842 
L 950.932125 -93.463404 
L 951.902203 -95.158967 
L 953.865813 -96.854529 
L 956.676742 -98.550091 
L 960.139003 -100.245653 
L 964.026662 -101.941215 
L 968.105789 -103.636777 
L 972.155707 -105.33234 
L 975.987038 -107.027902 
L 979.454675 -108.723464 
L 982.464687 -110.419026 
L 984.975051 -112.114588 
L 986.990903 -113.81015 
L 988.555561 -115.505712 
L 989.738945 -117.201275 
L 990.625019 -118.896837 
L 991.299812 -120.592399 
L 991.841213 -122.287961 
L 992.311422 -123.983523 
L 992.752477 -125.679085 
L 993.184927 -127.374648 
L 993.609376 -129.07021 
L 994.010355 -130.765772 
L 994.361823 -132.461334 
L 994.63347 -134.156896 
L 994.797044 -135.852458 
L 994.83193 -137.548021 
L 994.7294 -139.243583 
L 994.49507 -140.939145 
L 994.149364 -142.634707 
L 993.725983 -144.330269 
L 993.268588 -146.025831 
L 992.826153 -147.721393 
L 992.447541 -149.416956 
L 992.176003 -151.112518 
L 992.044283 -152.80808 
L 992.070945 -154.503642 
L 992.258382 -156.199204 
L 992.592747 -157.894766 
L 993.045796 -159.590329 
L 993.578375 -161.285891 
L 994.14509 -162.981453 
L 994.699545 -164.677015 
L 995.199513 -166.372577 
L 995.611402 -168.068139 
L 995.913535 -169.763702 
L 996.097892 -171.459264 
L 996.170197 -173.154826 
L 996.148395 -174.850388 
L 996.059766 -176.54595 
L 995.937069 -178.241512 
L 995.814186 -179.937074 
L 995.721804 -181.632637 
L 995.683637 -183.328199 
L 995.713614 -185.023761 
L 995.814365 -186.719323 
L 995.977138 -188.414885 
L 996.18315 -190.110447 
L 996.406169 -191.80601 
L 996.61601 -193.501572 
L 996.78251 -195.197134 
L 996.879505 -196.892696 
L 996.888335 -198.588258 
L 996.800473 -200.28382 
L 996.618959 -201.979383 
L 996.358485 -203.674945 
L 996.044107 -205.370507 
L 995.70874 -207.066069 
L 995.389725 -208.761631 
L 995.12489 -210.457193 
L 994.948564 -212.152755 
L 994.888041 -213.848318 
L 994.960903 -215.54388 
L 995.173528 -217.239442 
L 995.520887 -218.935004 
L 995.987624 -220.630566 
L 996.550178 -222.326128 
L 997.17962 -224.021691 
L 997.844781 -225.717253 
L 998.515264 -227.412815 
L 999.163983 -229.108377 
L 999.768987 -230.803939 
L 1000.314472 -232.499501 
L 1000.79098 -234.195064 
L 1001.19493 -235.890626 
L 1001.527671 -237.586188 
L 1003.543579 -237.586188 
L 1003.543579 -237.586188 
L 1003.87632 -235.890626 
L 1004.28027 -234.195064 
L 1004.756778 -232.499501 
L 1005.302263 -230.803939 
L 1005.907267 -229.108377 
L 1006.555986 -227.412815 
L 1007.226469 -225.717253 
L 1007.89163 -224.021691 
L 1008.521072 -222.326128 
L 1009.083626 -220.630566 
L 1009.550363 -218.935004 
L 1009.897722 -217.239442 
L 1010.110347 -215.54388 
L 1010.183209 -213.848318 
L 1010.122686 -212.152755 
L 1009.94636 -210.457193 
L 1009.681525 -208.761631 
L 1009.36251 -207.066069 
L 1009.027143 -205.370507 
L 1008.712765 -203.674945 
L 1008.452291 -201.979383 
L 1008.270777 -200.28382 
L 1008.182915 -198.588258 
L 1008.191745 -196.892696 
L 1008.28874 -195.197134 
L 1008.45524 -193.501572 
L 1008.665081 -191.80601 
L 1008.8881 -190.110447 
L 1009.094112 -188.414885 
L 1009.256885 -186.719323 
L 1009.357636 -185.023761 
L 1009.387613 -183.328199 
L 1009.349446 -181.632637 
L 1009.257064 -179.937074 
L 1009.134181 -178.241512 
L 1009.011484 -176.54595 
L 1008.922855 -174.850388 
L 1008.901053 -173.154826 
L 1008.973358 -171.459264 
L 1009.157715 -169.763702 
L 1009.459848 -168.068139 
L 1009.871737 -166.372577 
L 1010.371705 -164.677015 
L 1010.92616 -162.981453 
L 1011.492875 -161.285891 
L 1012.025454 -159.590329 
L 1012.478503 -157.894766 
L 1012.812868 -156.199204 
L 1013.000305 -154.503642 
L 1013.026967 -152.80808 
L 1012.895247 -151.112518 
L 1012.623709 -149.416956 
L 1012.245097 -147.721393 
L 1011.802662 -146.025831 
L 1011.345267 -144.330269 
L 1010.921886 -142.634707 
L 1010.57618 -140.939145 
L 1010.34185 -139.243583 
L 1010.23932 -137.548021 
L 1010.274206 -135.852458 
L 1010.43778 -134.156896 
L 1010.709427 -132.461334 
L 1011.060895 -130.765772 
L 1011.461874 -129.07021 
L 1011.886323 -127.374648 
L 1012.318773 -125.679085 
L 1012.759828 -123.983523 
L 1013.230037 -122.287961 
L 1013.771438 -120.592399 
L 1014.446231 -118.896837 
L 1015.332305 -117.201275 
L 1016.515689 -115.505712 
L 1018.080347 -113.81015 
L 1020.096199 -112.114588 
L 1022.606563 -110.419026 
L 1025.616575 -108.723464 
L 1029.084212 -107.027902 
L 1032.915543 -105.33234 
L 1036.965461 -103.636777 
L 1041.044588 -101.941215 
L 1044.932247 -100.245653 
L 1048.394508 -98.550091 
L 1051.205437 -96.854529 
L 1053.169047 -95.158967 
L 1054.139125 -93.463404 
L 1054.03427 -91.767842 
L 1052.846082 -90.07228 
L 1050.639389 -88.376718 
L 1047.544586 -86.681156 
L 1043.743292 -84.985594 
L 1039.449457 -83.290031 
L 1034.88859 -81.594469 
L 1030.277804 -79.898907 
L 1025.80905 -78.203345 
L 1021.637135 -76.507783 
L 1017.87328 -74.812221 
L 1014.584086 -73.116659 
L 1011.795045 -71.421096 
L 1009.497312 -69.725534 
z
" style="stroke: #3e3e3e; stroke-width: 3"/>
    </defs>
    <g clip-path="url(#p1b2ff0d4c9)">
     <use xlink:href="#m4dad205efd" x="0" y="288" style="fill: #e890be; stroke: #3e3e3e; stroke-width: 3"/>
    </g>
   </g>
   <g id="line2d_15">
    <path d="M 99.474375 215.709611 
L 99.474375 98.711579 
" clip-path="url(#p1b2ff0d4c9)" style="fill: none; stroke: #3e3e3e; stroke-width: 4.5; stroke-linecap: round"/>
   </g>
   <g id="line2d_16">
    <path d="M 99.474375 202.709829 
L 99.474375 124.711142 
" clip-path="url(#p1b2ff0d4c9)" style="fill: none; stroke: #3e3e3e; stroke-width: 13.5; stroke-linecap: round"/>
   </g>
   <g id="line2d_17">
    <path d="M 99.474375 176.710267 
" clip-path="url(#p1b2ff0d4c9)" style="fill: none; stroke: #3e3e3e; stroke-width: 1.5; stroke-linecap: round"/>
    <defs>
     <path id="m7d0f2c199c" d="M 5.625 0 
L -5.625 -0 
" style="stroke: #ffffff; stroke-width: 2.7"/>
    </defs>
    <g clip-path="url(#p1b2ff0d4c9)">
     <use xlink:href="#m7d0f2c199c" x="99.474375" y="176.710267" style="fill: #ffffff; stroke: #ffffff; stroke-width: 2.7"/>
    </g>
   </g>
   <g id="line2d_18">
    <path d="M 228.483125 223.996407 
L 228.483125 102.775147 
" clip-path="url(#p1b2ff0d4c9)" style="fill: none; stroke: #3e3e3e; stroke-width: 4.5; stroke-linecap: round"/>
   </g>
   <g id="line2d_19">
    <path d="M 228.483125 193.691092 
L 228.483125 133.080462 
" clip-path="url(#p1b2ff0d4c9)" style="fill: none; stroke: #3e3e3e; stroke-width: 13.5; stroke-linecap: round"/>
   </g>
   <g id="line2d_20">
    <path d="M 228.483125 163.385777 
" clip-path="url(#p1b2ff0d4c9)" style="fill: none; stroke: #3e3e3e; stroke-width: 1.5; stroke-linecap: round"/>
    <g clip-path="url(#p1b2ff0d4c9)">
     <use xlink:href="#m7d0f2c199c" x="228.483125" y="163.385777" style="fill: #ffffff; stroke: #ffffff; stroke-width: 2.7"/>
    </g>
   </g>
   <g id="line2d_21">
    <path d="M 357.491875 229.622016 
L 357.491875 118.786164 
" clip-path="url(#p1b2ff0d4c9)" style="fill: none; stroke: #3e3e3e; stroke-width: 4.5; stroke-linecap: round"/>
   </g>
   <g id="line2d_22">
    <path d="M 357.491875 201.913053 
L 357.491875 118.786164 
" clip-path="url(#p1b2ff0d4c9)" style="fill: none; stroke: #3e3e3e; stroke-width: 13.5; stroke-linecap: round"/>
   </g>
   <g id="line2d_23">
    <path d="M 357.491875 174.20409 
" clip-path="url(#p1b2ff0d4c9)" style="fill: none; stroke: #3e3e3e; stroke-width: 1.5; stroke-linecap: round"/>
    <g clip-path="url(#p1b2ff0d4c9)">
     <use xlink:href="#m7d0f2c199c" x="357.491875" y="174.20409" style="fill: #ffffff; stroke: #ffffff; stroke-width: 2.7"/>
    </g>
   </g>
   <g id="line2d_24">
    <path d="M 486.500625 217.711703 
L 486.500625 104.392143 
" clip-path="url(#p1b2ff0d4c9)" style="fill: none; stroke: #3e3e3e; stroke-width: 4.5; stroke-linecap: round"/>
   </g>
   <g id="line2d_25">
    <path d="M 486.500625 217.711703 
L 486.500625 132.722033 
" clip-path="url(#p1b2ff0d4c9)" style="fill: none; stroke: #3e3e3e; stroke-width: 13.5; stroke-linecap: round"/>
   </g>
   <g id="line2d_26">
    <path d="M 486.500625 161.051923 
" clip-path="url(#p1b2ff0d4c9)" style="fill: none; stroke: #3e3e3e; stroke-width: 1.5; stroke-linecap: round"/>
    <g clip-path="url(#p1b2ff0d4c9)">
     <use xlink:href="#m7d0f2c199c" x="486.500625" y="161.051923" style="fill: #ffffff; stroke: #ffffff; stroke-width: 2.7"/>
    </g>
   </g>
   <g id="line2d_27">
    <path d="M 615.509375 214.51411 
L 615.509375 102.336227 
" clip-path="url(#p1b2ff0d4c9)" style="fill: none; stroke: #3e3e3e; stroke-width: 4.5; stroke-linecap: round"/>
   </g>
   <g id="line2d_28">
    <path d="M 615.509375 214.51411 
L 615.509375 130.380697 
" clip-path="url(#p1b2ff0d4c9)" style="fill: none; stroke: #3e3e3e; stroke-width: 13.5; stroke-linecap: round"/>
   </g>
   <g id="line2d_29">
    <path d="M 615.509375 158.425168 
" clip-path="url(#p1b2ff0d4c9)" style="fill: none; stroke: #3e3e3e; stroke-width: 1.5; stroke-linecap: round"/>
    <g clip-path="url(#p1b2ff0d4c9)">
     <use xlink:href="#m7d0f2c199c" x="615.509375" y="158.425168" style="fill: #ffffff; stroke: #ffffff; stroke-width: 2.7"/>
    </g>
   </g>
   <g id="line2d_30">
    <path d="M 744.518125 216.371278 
L 744.518125 101.477321 
" clip-path="url(#p1b2ff0d4c9)" style="fill: none; stroke: #3e3e3e; stroke-width: 4.5; stroke-linecap: round"/>
   </g>
   <g id="line2d_31">
    <path d="M 744.518125 216.371278 
L 744.518125 130.20081 
" clip-path="url(#p1b2ff0d4c9)" style="fill: none; stroke: #3e3e3e; stroke-width: 13.5; stroke-linecap: round"/>
   </g>
   <g id="line2d_32">
    <path d="M 744.518125 158.9243 
" clip-path="url(#p1b2ff0d4c9)" style="fill: none; stroke: #3e3e3e; stroke-width: 1.5; stroke-linecap: round"/>
    <g clip-path="url(#p1b2ff0d4c9)">
     <use xlink:href="#m7d0f2c199c" x="744.518125" y="158.9243" style="fill: #ffffff; stroke: #ffffff; stroke-width: 2.7"/>
    </g>
   </g>
   <g id="line2d_33">
    <path d="M 873.526875 215.748279 
L 873.526875 97.684555 
" clip-path="url(#p1b2ff0d4c9)" style="fill: none; stroke: #3e3e3e; stroke-width: 4.5; stroke-linecap: round"/>
   </g>
   <g id="line2d_34">
    <path d="M 873.526875 215.748279 
L 873.526875 127.200486 
" clip-path="url(#p1b2ff0d4c9)" style="fill: none; stroke: #3e3e3e; stroke-width: 13.5; stroke-linecap: round"/>
   </g>
   <g id="line2d_35">
    <path d="M 873.526875 156.716417 
" clip-path="url(#p1b2ff0d4c9)" style="fill: none; stroke: #3e3e3e; stroke-width: 1.5; stroke-linecap: round"/>
    <g clip-path="url(#p1b2ff0d4c9)">
     <use xlink:href="#m7d0f2c199c" x="873.526875" y="156.716417" style="fill: #ffffff; stroke: #ffffff; stroke-width: 2.7"/>
    </g>
   </g>
   <g id="line2d_36">
    <path d="M 1002.535625 195.374851 
L 1002.535625 73.313427 
" clip-path="url(#p1b2ff0d4c9)" style="fill: none; stroke: #3e3e3e; stroke-width: 4.5; stroke-linecap: round"/>
   </g>
   <g id="line2d_37">
    <path d="M 1002.535625 195.374851 
L 1002.535625 134.344139 
" clip-path="url(#p1b2ff0d4c9)" style="fill: none; stroke: #3e3e3e; stroke-width: 13.5; stroke-linecap: round"/>
   </g>
   <g id="line2d_38">
    <path d="M 1002.535625 195.374851 
" clip-path="url(#p1b2ff0d4c9)" style="fill: none; stroke: #3e3e3e; stroke-width: 1.5; stroke-linecap: round"/>
    <g clip-path="url(#p1b2ff0d4c9)">
     <use xlink:href="#m7d0f2c199c" x="1002.535625" y="195.374851" style="fill: #ffffff; stroke: #ffffff; stroke-width: 2.7"/>
    </g>
   </g>
   <g id="patch_3">
    <path d="M 34.97 255.46 
L 34.97 40.649708 
" style="fill: none; stroke: #262626; stroke-width: 1.25; stroke-linejoin: miter; stroke-linecap: square"/>
   </g>
   <g id="patch_4">
    <path d="M 1067.04 255.46 
L 1067.04 40.649708 
" style="fill: none; stroke: #262626; stroke-width: 1.25; stroke-linejoin: miter; stroke-linecap: square"/>
   </g>
   <g id="patch_5">
    <path d="M 34.97 255.46 
L 1067.04 255.46 
" style="fill: none; stroke: #262626; stroke-width: 1.25; stroke-linejoin: miter; stroke-linecap: square"/>
   </g>
   <g id="patch_6">
    <path d="M 34.97 40.649708 
L 1067.04 40.649708 
" style="fill: none; stroke: #262626; stroke-width: 1.25; stroke-linejoin: miter; stroke-linecap: square"/>
   </g>
  </g>
  <g id="text_15">
   <!-- Violin Plot of all Continuous Variables -->
   <g style="fill: #262626" transform="translate(416.035547 16.496719) scale(0.15 -0.15)">
    <defs>
     <path id="ArialMT-20" transform="scale(0.015625)"/>
     <path id="ArialMT-50" d="M 494 0 
L 494 4581 
L 2222 4581 
Q 2678 4581 2919 4538 
Q 3256 4481 3484 4323 
Q 3713 4166 3852 3881 
Q 3991 3597 3991 3256 
Q 3991 2672 3619 2267 
Q 3247 1863 2275 1863 
L 1100 1863 
L 1100 0 
L 494 0 
z
M 1100 2403 
L 2284 2403 
Q 2872 2403 3119 2622 
Q 3366 2841 3366 3238 
Q 3366 3525 3220 3729 
Q 3075 3934 2838 4000 
Q 2684 4041 2272 4041 
L 1100 4041 
L 1100 2403 
z
" transform="scale(0.015625)"/>
    </defs>
    <use xlink:href="#ArialMT-56"/>
    <use xlink:href="#ArialMT-69" transform="translate(64.949219 0)"/>
    <use xlink:href="#ArialMT-6f" transform="translate(87.166016 0)"/>
    <use xlink:href="#ArialMT-6c" transform="translate(142.78125 0)"/>
    <use xlink:href="#ArialMT-69" transform="translate(164.998047 0)"/>
    <use xlink:href="#ArialMT-6e" transform="translate(187.214844 0)"/>
    <use xlink:href="#ArialMT-20" transform="translate(242.830078 0)"/>
    <use xlink:href="#ArialMT-50" transform="translate(270.613281 0)"/>
    <use xlink:href="#ArialMT-6c" transform="translate(337.3125 0)"/>
    <use xlink:href="#ArialMT-6f" transform="translate(359.529297 0)"/>
    <use xlink:href="#ArialMT-74" transform="translate(415.144531 0)"/>
    <use xlink:href="#ArialMT-20" transform="translate(442.927734 0)"/>
    <use xlink:href="#ArialMT-6f" transform="translate(470.710938 0)"/>
    <use xlink:href="#ArialMT-66" transform="translate(526.326172 0)"/>
    <use xlink:href="#ArialMT-20" transform="translate(554.109375 0)"/>
    <use xlink:href="#ArialMT-61" transform="translate(581.892578 0)"/>
    <use xlink:href="#ArialMT-6c" transform="translate(637.507812 0)"/>
    <use xlink:href="#ArialMT-6c" transform="translate(659.724609 0)"/>
    <use xlink:href="#ArialMT-20" transform="translate(681.941406 0)"/>
    <use xlink:href="#ArialMT-43" transform="translate(709.724609 0)"/>
    <use xlink:href="#ArialMT-6f" transform="translate(781.941406 0)"/>
    <use xlink:href="#ArialMT-6e" transform="translate(837.556641 0)"/>
    <use xlink:href="#ArialMT-74" transform="translate(893.171875 0)"/>
    <use xlink:href="#ArialMT-69" transform="translate(920.955078 0)"/>
    <use xlink:href="#ArialMT-6e" transform="translate(943.171875 0)"/>
    <use xlink:href="#ArialMT-75" transform="translate(998.787109 0)"/>
    <use xlink:href="#ArialMT-6f" transform="translate(1054.402344 0)"/>
    <use xlink:href="#ArialMT-75" transform="translate(1110.017578 0)"/>
    <use xlink:href="#ArialMT-73" transform="translate(1165.632812 0)"/>
    <use xlink:href="#ArialMT-20" transform="translate(1215.632812 0)"/>
    <use xlink:href="#ArialMT-56" transform="translate(1243.416016 0)"/>
    <use xlink:href="#ArialMT-61" transform="translate(1302.740234 0)"/>
    <use xlink:href="#ArialMT-72" transform="translate(1358.355469 0)"/>
    <use xlink:href="#ArialMT-69" transform="translate(1391.65625 0)"/>
    <use xlink:href="#ArialMT-61" transform="translate(1413.873047 0)"/>
    <use xlink:href="#ArialMT-62" transform="translate(1469.488281 0)"/>
    <use xlink:href="#ArialMT-6c" transform="translate(1525.103516 0)"/>
    <use xlink:href="#ArialMT-65" transform="translate(1547.320312 0)"/>
    <use xlink:href="#ArialMT-73" transform="translate(1602.935547 0)"/>
   </g>
  </g>
 </g>
 <defs>
  <clipPath id="p1b2ff0d4c9">
   <rect x="34.97" y="40.649708" width="1032.07" height="214.810292"/>
  </clipPath>
 </defs>
</svg>
